<svg width="500" height="373" viewBox="0 0 500 373" fill="none" xmlns="http://www.w3.org/2000/svg">
<path d="M500 327.4H0V327.65H500V327.4Z" fill="#EBEBEB"/>
<path d="M449.9 343.49H416.78V343.74H449.9V343.49Z" fill="#EBEBEB"/>
<path d="M331.22 346.21H322.53V346.46H331.22V346.21Z" fill="#EBEBEB"/>
<path d="M415.78 334.21H396.59V334.46H415.78V334.21Z" fill="#EBEBEB"/>
<path d="M95.65 335.89H52.46V336.14H95.65V335.89Z" fill="#EBEBEB"/>
<path d="M110.89 335.89H104.56V336.14H110.89V335.89Z" fill="#EBEBEB"/>
<path d="M225.15 340.11H131.47V340.36H225.15V340.11Z" fill="#EBEBEB"/>
<path d="M237 282.8H43.91C42.3973 282.797 40.9475 282.195 39.8788 281.124C38.8102 280.054 38.21 278.603 38.21 277.09V5.66C38.2231 4.15603 38.8292 2.71798 39.8964 1.65822C40.9637 0.598458 42.4059 0.00257639 43.91 0H237C238.514 0 239.967 0.601588 241.038 1.67242C242.108 2.74325 242.71 4.19561 242.71 5.71V277.09C242.71 278.604 242.108 280.057 241.038 281.128C239.967 282.198 238.514 282.8 237 282.8ZM43.91 0.200001C42.4636 0.20265 41.0774 0.779065 40.0556 1.80273C39.0338 2.82639 38.46 4.21365 38.46 5.66V277.09C38.46 278.536 39.0338 279.924 40.0556 280.947C41.0774 281.971 42.4636 282.547 43.91 282.55H237C238.447 282.547 239.834 281.971 240.858 280.948C241.881 279.924 242.457 278.537 242.46 277.09V5.66C242.457 4.21273 241.881 2.82549 240.858 1.80212C239.834 0.77874 238.447 0.202644 237 0.200001H43.91Z" fill="#EBEBEB"/>
<path d="M453.31 282.8H260.21C258.696 282.797 257.246 282.195 256.175 281.125C255.105 280.054 254.503 278.604 254.5 277.09V5.66C254.516 4.15511 255.124 2.71708 256.193 1.65759C257.262 0.598109 258.705 0.00254829 260.21 0H453.31C454.812 0.0052045 456.252 0.602249 457.317 1.66173C458.382 2.72121 458.987 4.15775 459 5.66V277.09C459 278.601 458.401 280.05 457.335 281.121C456.268 282.191 454.821 282.795 453.31 282.8ZM260.21 0.200001C258.763 0.202644 257.375 0.77874 256.352 1.80212C255.329 2.82549 254.753 4.21273 254.75 5.66V277.09C254.753 278.537 255.329 279.924 256.352 280.948C257.375 281.971 258.763 282.547 260.21 282.55H453.31C454.757 282.547 456.145 281.971 457.168 280.948C458.191 279.924 458.767 278.537 458.77 277.09V5.66C458.767 4.21273 458.191 2.82549 457.168 1.80212C456.145 0.77874 454.757 0.202644 453.31 0.200001H260.21Z" fill="#EBEBEB"/>
<path d="M417.94 58.73H412.7V168.9H417.94V58.73Z" fill="#E0E0E0"/>
<path d="M315.3 168.91H414.92V58.74L315.3 58.74V168.91Z" fill="#E0E0E0"/>
<path d="M312.12 168.91H415.44V58.74L312.12 58.74V168.91Z" fill="#F0F0F0"/>
<path d="M316.49 163.85H411.23V62.25L316.49 62.25V163.85Z" fill="white"/>
<path d="M316.49 163.85H319.23V62.25H316.49V163.85Z" fill="#E0E0E0"/>
<path d="M318.93 135.31V138.05H411.47V135.31H318.93Z" fill="#E0E0E0"/>
<path d="M316.49 135.31H412.7V130.71H316.49V135.31Z" fill="#F0F0F0"/>
<path d="M219.59 128.09H63.0498V326.31H219.59V128.09Z" fill="#F0F0F0"/>
<path d="M214.06 135.31H68.5898V177.7H214.06V135.31Z" fill="#E0E0E0"/>
<path d="M76.8498 142.17H68.5898V177.69H76.8498V142.17Z" fill="#EBEBEB"/>
<path d="M116.81 142.17H108.55V177.69H116.81V142.17Z" fill="#EBEBEB"/>
<path d="M162.166 141.282L154.026 142.685L160.06 177.689L168.2 176.286L162.166 141.282Z" fill="#EBEBEB"/>
<path d="M87.0901 146.85H78.8301V177.69H87.0901V146.85Z" fill="#EBEBEB"/>
<path d="M106.08 146.85H97.8198V177.69H106.08V146.85Z" fill="#EBEBEB"/>
<path d="M154.02 146.85H145.76V177.69H154.02V146.85Z" fill="#EBEBEB"/>
<path d="M127.666 145.793L119.603 147.585L126.294 177.69L134.357 175.898L127.666 145.793Z" fill="#EBEBEB"/>
<path d="M94.2301 140.41H90.1001V177.7H94.2301V140.41Z" fill="#EBEBEB"/>
<path d="M143.39 140.41H139.26V177.7H143.39V140.41Z" fill="#EBEBEB"/>
<path d="M68.5798 226.79L214.05 226.79V184.4L68.5798 184.4V226.79Z" fill="#E0E0E0"/>
<path d="M205.8 226.8H214.06V191.28H205.8V226.8Z" fill="#EBEBEB"/>
<path d="M165.84 226.8H174.1V191.28H165.84V226.8Z" fill="#EBEBEB"/>
<path d="M113.908 224.256L122.085 225.66L128.123 190.496L119.946 189.091L113.908 224.256Z" fill="#EBEBEB"/>
<path d="M195.56 226.8H203.82V195.96H195.56V226.8Z" fill="#EBEBEB"/>
<path d="M176.56 226.8H184.82V195.96H176.56V226.8Z" fill="#EBEBEB"/>
<path d="M128.62 226.8H136.88V195.96H128.62V226.8Z" fill="#EBEBEB"/>
<path d="M148.305 225.006L156.368 226.798L163.059 196.692L154.996 194.9L148.305 225.006Z" fill="#EBEBEB"/>
<path d="M188.41 226.79H192.54V189.5H188.41V226.79Z" fill="#EBEBEB"/>
<path d="M139.25 226.79H143.38V189.5H139.25V226.79Z" fill="#EBEBEB"/>
<path d="M76.8498 191.27H68.5898V226.79H76.8498V191.27Z" fill="#EBEBEB"/>
<path d="M87.0901 195.95H78.8301V226.79H87.0901V195.95Z" fill="#EBEBEB"/>
<path d="M106.08 195.95H97.8198V226.79H106.08V195.95Z" fill="#EBEBEB"/>
<path d="M94.2301 189.51H90.1001V226.8H94.2301V189.51Z" fill="#EBEBEB"/>
<path d="M214.06 233.51H68.5898V275.9H214.06V233.51Z" fill="#E0E0E0"/>
<path d="M160.34 240.37H152.08V275.89H160.34V240.37Z" fill="#EBEBEB"/>
<path d="M205.714 239.479L197.574 240.882L203.608 275.886L211.748 274.483L205.714 239.479Z" fill="#EBEBEB"/>
<path d="M130.62 245.05H122.36V275.89H130.62V245.05Z" fill="#EBEBEB"/>
<path d="M149.62 245.05H141.36V275.89H149.62V245.05Z" fill="#EBEBEB"/>
<path d="M197.56 245.05H189.3V275.89H197.56V245.05Z" fill="#EBEBEB"/>
<path d="M171.201 243.978L163.138 245.77L169.829 275.875L177.892 274.083L171.201 243.978Z" fill="#EBEBEB"/>
<path d="M137.77 238.61H133.64V275.9H137.77V238.61Z" fill="#EBEBEB"/>
<path d="M186.92 238.61H182.79V275.9H186.92V238.61Z" fill="#EBEBEB"/>
<path d="M110.646 239.478L102.506 240.882L108.539 275.885L116.679 274.482L110.646 239.478Z" fill="#EBEBEB"/>
<path d="M102.49 245.05H94.23V275.89H102.49V245.05Z" fill="#EBEBEB"/>
<path d="M76.136 243.983L68.0728 245.775L74.7635 275.881L82.8268 274.089L76.136 243.983Z" fill="#EBEBEB"/>
<path d="M91.8502 238.61H87.7202V275.9H91.8502V238.61Z" fill="#EBEBEB"/>
<path d="M315.2 208H403.42C408.013 208.003 412.416 209.828 415.664 213.076C418.912 216.323 420.737 220.727 420.74 225.32V294.2H297.88V225.31C297.883 220.718 299.708 216.315 302.956 213.069C306.204 209.823 310.608 208 315.2 208Z" fill="#E6E6E6"/>
<path d="M271.79 259H287.58C290.312 259 292.932 260.085 294.863 262.017C296.795 263.948 297.88 266.568 297.88 269.3V326.3H261.5V269.3C261.5 266.57 262.584 263.952 264.513 262.02C266.443 260.089 269.06 259.003 271.79 259Z" fill="#E0E0E0"/>
<path d="M271.79 259H272.13C274.86 259.003 277.477 260.089 279.407 262.02C281.336 263.952 282.42 266.57 282.42 269.3V326.3H261.5V269.3C261.5 266.57 262.584 263.952 264.513 262.02C266.443 260.089 269.06 259.003 271.79 259Z" fill="#EBEBEB"/>
<path d="M407.89 300.14H286.83V326.31H407.89V300.14Z" fill="#E6E6E6"/>
<path d="M403.41 276.21H286.66C280.878 276.21 276.19 280.898 276.19 286.68V293.19C276.19 298.972 280.878 303.66 286.66 303.66H403.41C409.192 303.66 413.88 298.972 413.88 293.19V286.68C413.88 280.898 409.192 276.21 403.41 276.21Z" fill="#F5F5F5"/>
<path d="M403.21 276.21H388.74C382.958 276.21 378.27 280.898 378.27 286.68V293.19C378.27 298.972 382.958 303.66 388.74 303.66H403.21C408.992 303.66 413.68 298.972 413.68 293.19V286.68C413.68 280.898 408.992 276.21 403.21 276.21Z" fill="#E0E0E0"/>
<path d="M404.78 259H420.57C423.3 259.003 425.918 260.089 427.847 262.02C429.776 263.952 430.86 266.57 430.86 269.3V326.3H394.49V269.3C394.489 267.948 394.754 266.609 395.271 265.359C395.787 264.11 396.545 262.974 397.501 262.017C398.456 261.061 399.591 260.302 400.84 259.784C402.089 259.266 403.428 259 404.78 259Z" fill="#E0E0E0"/>
<path d="M404.78 259H405.11C407.842 259 410.462 260.085 412.393 262.017C414.325 263.948 415.41 266.568 415.41 269.3V326.3H394.49V269.3C394.489 267.948 394.754 266.609 395.271 265.359C395.787 264.11 396.545 262.974 397.501 262.017C398.456 261.061 399.591 260.302 400.84 259.784C402.089 259.266 403.428 259 404.78 259Z" fill="#F0F0F0"/>
<path d="M254.261 73.102C261.376 65.9866 261.376 54.4503 254.261 47.335C247.145 40.2196 235.609 40.2196 228.494 47.335C221.378 54.4503 221.378 65.9866 228.494 73.102C235.609 80.2173 247.145 80.2173 254.261 73.102Z" fill="#E0E0E0"/>
<path d="M243.267 75.5908C251.763 74.5446 257.802 66.8089 256.756 58.3127C255.71 49.8164 247.974 43.777 239.478 44.8232C230.982 45.8694 224.942 53.6051 225.989 62.1014C227.035 70.5976 234.77 76.6371 243.267 75.5908Z" fill="#F0F0F0"/>
<path d="M242.1 49.59V60.42L249.28 56.36" fill="#F0F0F0"/>
<path d="M242.1 61.19C241.999 61.1913 241.898 61.1723 241.804 61.1341C241.71 61.0959 241.624 61.0392 241.553 60.9675C241.481 60.8957 241.424 60.8103 241.386 60.7162C241.348 60.6222 241.329 60.5215 241.33 60.42V49.59C241.329 49.488 241.348 49.3868 241.386 49.2923C241.424 49.1977 241.48 49.1116 241.552 49.0391C241.624 48.9665 241.709 48.9089 241.803 48.8696C241.897 48.8302 241.998 48.81 242.1 48.81C242.307 48.81 242.505 48.8922 242.652 49.0385C242.798 49.1847 242.88 49.3831 242.88 49.59V59.09L248.88 55.68C249.059 55.5792 249.271 55.5537 249.469 55.609C249.667 55.6643 249.834 55.796 249.935 55.975C250.036 56.154 250.061 56.3657 250.006 56.5636C249.951 56.7614 249.819 56.9292 249.64 57.03L242.46 61.09C242.351 61.1532 242.227 61.1876 242.1 61.19Z" fill="#E0E0E0"/>
<path d="M250 372.56C357.082 372.56 443.89 367.492 443.89 361.24C443.89 354.988 357.082 349.92 250 349.92C142.917 349.92 56.1099 354.988 56.1099 361.24C56.1099 367.492 142.917 372.56 250 372.56Z" fill="#F5F5F5"/>
<path d="M336.6 102.03H180.96V361.5H336.6V102.03Z" fill="#FF6B6B"/>
<path opacity="0.5" d="M336.6 102.03H180.96V361.5H336.6V102.03Z" fill="white"/>
<path d="M316.35 102.03H160.71V361.5H316.35V102.03Z" fill="#FF6B6B"/>
<path opacity="0.7" d="M316.35 102.03H160.71V361.5H316.35V102.03Z" fill="white"/>
<g opacity="0.2">
<path d="M321.08 102L320.59 234.55L320.11 102H321.08Z" fill="black"/>
<path d="M325.26 102L324.78 248.02L324.3 102H325.26Z" fill="black"/>
<path d="M334.24 102L333.76 169.32L333.28 102H334.24Z" fill="black"/>
<path d="M324.3 360.57L324.78 269.85L325.26 360.57H324.3Z" fill="black"/>
<path d="M328.7 361.54L329.19 182.44L329.67 361.54H328.7Z" fill="black"/>
<path d="M333.28 360.57L333.76 274.04L334.24 360.57H333.28Z" fill="black"/>
<path d="M329.67 102L329.19 160.67L328.7 102H329.67Z" fill="black"/>
<path d="M320.11 361.04L320.59 259.4L321.08 361.04H320.11Z" fill="black"/>
</g>
<path d="M153.65 139.06H168V179.85H153.65C153.303 179.85 152.97 179.712 152.724 179.466C152.478 179.221 152.34 178.887 152.34 178.54V140.38C152.339 140.207 152.372 140.036 152.437 139.876C152.502 139.716 152.599 139.57 152.721 139.447C152.842 139.325 152.987 139.227 153.147 139.161C153.306 139.094 153.477 139.06 153.65 139.06Z" fill="#263238"/>
<path d="M168.58 171.85C168.453 171.85 168.331 171.799 168.241 171.709C168.151 171.619 168.1 171.497 168.1 171.37V166.77L148.2 162.62C147.83 163.139 147.343 163.564 146.779 163.859C146.214 164.154 145.587 164.312 144.95 164.32C143.76 164.177 142.664 163.603 141.869 162.707C141.074 161.81 140.635 160.653 140.635 159.455C140.635 158.257 141.074 157.1 141.869 156.203C142.664 155.307 143.76 154.733 144.95 154.59C145.588 154.6 146.215 154.759 146.78 155.057C147.344 155.354 147.831 155.78 148.2 156.3L168.1 152.14V148.37C168.103 148.243 168.154 148.123 168.244 148.033C168.333 147.944 168.454 147.893 168.58 147.89C168.707 147.89 168.83 147.941 168.92 148.031C169.01 148.121 169.06 148.243 169.06 148.37V152.53C169.061 152.641 169.023 152.749 168.954 152.837C168.885 152.924 168.789 152.985 168.68 153.01L148.08 157.3C147.986 157.322 147.888 157.314 147.799 157.279C147.709 157.243 147.633 157.181 147.58 157.1C147.307 156.642 146.923 156.261 146.463 155.992C146.003 155.723 145.483 155.574 144.95 155.56C144.023 155.709 143.179 156.183 142.57 156.898C141.961 157.613 141.627 158.521 141.627 159.46C141.627 160.399 141.961 161.307 142.57 162.022C143.179 162.737 144.023 163.211 144.95 163.36C145.483 163.346 146.003 163.197 146.463 162.928C146.923 162.659 147.307 162.278 147.58 161.82C147.633 161.739 147.708 161.675 147.798 161.638C147.887 161.6 147.985 161.591 148.08 161.61L168.68 165.91C168.788 165.933 168.884 165.992 168.953 166.078C169.023 166.163 169.06 166.27 169.06 166.38V171.38C169.06 171.443 169.048 171.505 169.023 171.562C168.999 171.62 168.964 171.672 168.919 171.716C168.874 171.76 168.821 171.794 168.763 171.817C168.705 171.84 168.643 171.851 168.58 171.85Z" fill="#FF6B6B"/>
<path d="M169.19 138.94V150.23H167.41V138.94C167.41 138.704 167.504 138.478 167.671 138.311C167.838 138.144 168.064 138.05 168.3 138.05C168.536 138.05 168.763 138.144 168.929 138.311C169.096 138.478 169.19 138.704 169.19 138.94Z" fill="#263238"/>
<path d="M169.19 154.9H167.41V164.02H169.19V154.9Z" fill="#263238"/>
<path d="M167.41 168.69H169.19V180C169.19 180.236 169.096 180.462 168.929 180.629C168.763 180.796 168.536 180.89 168.3 180.89C168.064 180.89 167.838 180.796 167.671 180.629C167.504 180.462 167.41 180.236 167.41 180V168.69Z" fill="#263238"/>
<path d="M153.65 283.68H168V324.47H153.65C153.303 324.47 152.97 324.332 152.724 324.086C152.478 323.841 152.34 323.507 152.34 323.16V285C152.339 284.827 152.372 284.656 152.437 284.496C152.502 284.336 152.599 284.19 152.721 284.067C152.842 283.945 152.987 283.847 153.147 283.781C153.306 283.714 153.477 283.68 153.65 283.68Z" fill="#263238"/>
<path d="M168.58 316.47C168.517 316.47 168.455 316.458 168.396 316.433C168.338 316.409 168.285 316.374 168.241 316.329C168.196 316.285 168.161 316.232 168.137 316.174C168.113 316.115 168.1 316.053 168.1 315.99V311.39L148.2 307.24C147.83 307.759 147.343 308.184 146.779 308.479C146.214 308.774 145.587 308.932 144.95 308.94C143.76 308.797 142.664 308.223 141.869 307.327C141.074 306.43 140.635 305.273 140.635 304.075C140.635 302.877 141.074 301.72 141.869 300.823C142.664 299.927 143.76 299.353 144.95 299.21C145.588 299.22 146.215 299.379 146.78 299.677C147.344 299.974 147.831 300.4 148.2 300.92L168.1 296.76V293C168.103 292.873 168.154 292.753 168.244 292.663C168.333 292.574 168.454 292.523 168.58 292.52C168.707 292.52 168.83 292.571 168.92 292.661C169.01 292.751 169.06 292.873 169.06 293V297.17C169.058 297.28 169.02 297.385 168.951 297.471C168.882 297.556 168.787 297.615 168.68 297.64L148.08 301.94C147.985 301.957 147.888 301.946 147.799 301.909C147.711 301.871 147.634 301.809 147.58 301.73C147.307 301.272 146.923 300.891 146.463 300.622C146.003 300.353 145.483 300.204 144.95 300.19C144.023 300.339 143.179 300.813 142.57 301.528C141.961 302.243 141.627 303.151 141.627 304.09C141.627 305.029 141.961 305.937 142.57 306.652C143.179 307.367 144.023 307.841 144.95 307.99C145.483 307.976 146.003 307.827 146.463 307.558C146.923 307.289 147.307 306.908 147.58 306.45C147.633 306.369 147.708 306.305 147.798 306.268C147.887 306.23 147.985 306.221 148.08 306.24L168.68 310.54C168.788 310.563 168.884 310.622 168.953 310.708C169.023 310.793 169.06 310.9 169.06 311.01V316.01C169.059 316.072 169.045 316.133 169.021 316.189C168.996 316.246 168.96 316.297 168.915 316.339C168.871 316.382 168.818 316.416 168.761 316.438C168.703 316.46 168.642 316.471 168.58 316.47Z" fill="#FF6B6B"/>
<path d="M169.19 283.56V294.85H167.41V283.56C167.41 283.324 167.504 283.098 167.671 282.931C167.838 282.764 168.064 282.67 168.3 282.67C168.536 282.67 168.763 282.764 168.929 282.931C169.096 283.098 169.19 283.324 169.19 283.56Z" fill="#263238"/>
<path d="M169.19 299.52H167.41V308.64H169.19V299.52Z" fill="#263238"/>
<path d="M167.41 313.31H169.19V324.6C169.19 324.836 169.096 325.062 168.929 325.229C168.763 325.396 168.536 325.49 168.3 325.49C168.064 325.49 167.838 325.396 167.671 325.229C167.504 325.062 167.41 324.836 167.41 324.6V313.31Z" fill="#263238"/>
<path opacity="0.2" d="M243.44 146.37H181.26V194.01H243.44V146.37Z" fill="black"/>
<path opacity="0.4" d="M181.26 187.53L201.13 171.15L212.35 181.43L231.24 165.46L243.44 177.01V194.01H181.26V187.53Z" fill="white"/>
<path opacity="0.4" d="M195.41 165.81C198.531 165.81 201.06 163.28 201.06 160.16C201.06 157.04 198.531 154.51 195.41 154.51C192.29 154.51 189.76 157.04 189.76 160.16C189.76 163.28 192.29 165.81 195.41 165.81Z" fill="white"/>
<path opacity="0.2" d="M302.65 117.01H181.26V137.08H302.65V117.01Z" fill="black"/>
<path opacity="0.2" d="M302.65 146.37H251.06V149.03H302.65V146.37Z" fill="black"/>
<path opacity="0.2" d="M302.65 153.83H251.06V156.49H302.65V153.83Z" fill="black"/>
<path opacity="0.2" d="M302.65 161.28H251.06V163.94H302.65V161.28Z" fill="black"/>
<path opacity="0.2" d="M302.65 168.73H251.06V171.39H302.65V168.73Z" fill="black"/>
<path opacity="0.2" d="M302.65 176.19H251.06V178.85H302.65V176.19Z" fill="black"/>
<path opacity="0.2" d="M302.65 183.64H251.06V186.3H302.65V183.64Z" fill="black"/>
<path opacity="0.2" d="M302.65 191.36H251.06V194.02H302.65V191.36Z" fill="black"/>
<path opacity="0.2" d="M302.65 204.84H181.26V207.5H302.65V204.84Z" fill="black"/>
<path opacity="0.2" d="M302.65 211.94H181.26V214.6H302.65V211.94Z" fill="black"/>
<path opacity="0.2" d="M302.65 219.04H181.26V221.7H302.65V219.04Z" fill="black"/>
<path opacity="0.2" d="M302.65 226.14H181.26V228.8H302.65V226.14Z" fill="black"/>
<path opacity="0.2" d="M302.65 233.24H181.26V235.9H302.65V233.24Z" fill="black"/>
<path opacity="0.2" d="M302.65 240.34H181.26V243H302.65V240.34Z" fill="black"/>
<path opacity="0.2" d="M302.65 252.42H240.47V300.06H302.65V252.42Z" fill="black"/>
<path opacity="0.4" d="M240.47 293.59L260.34 277.2L271.56 287.49L290.45 271.52L302.65 283.07V300.07H240.47V293.59Z" fill="white"/>
<path opacity="0.4" d="M260.28 266.21C260.282 267.33 259.952 268.425 259.331 269.357C258.71 270.289 257.827 271.016 256.793 271.446C255.759 271.876 254.62 271.99 253.522 271.772C252.423 271.555 251.414 271.017 250.621 270.226C249.829 269.435 249.289 268.426 249.069 267.328C248.85 266.23 248.962 265.091 249.39 264.056C249.818 263.022 250.543 262.137 251.474 261.515C252.405 260.892 253.5 260.56 254.62 260.56C256.119 260.56 257.557 261.155 258.619 262.214C259.68 263.274 260.277 264.711 260.28 266.21Z" fill="white"/>
<path opacity="0.2" d="M181.25 255.09H232.84V252.43H181.25V255.09Z" fill="black"/>
<path opacity="0.2" d="M181.25 262.54H232.84V259.88H181.25V262.54Z" fill="black"/>
<path opacity="0.2" d="M181.25 269.99H232.84V267.33H181.25V269.99Z" fill="black"/>
<path opacity="0.2" d="M181.25 277.44H232.84V274.78H181.25V277.44Z" fill="black"/>
<path opacity="0.2" d="M181.25 284.9H232.84V282.24H181.25V284.9Z" fill="black"/>
<path opacity="0.2" d="M181.25 292.35H232.84V289.69H181.25V292.35Z" fill="black"/>
<path opacity="0.2" d="M181.25 300.07H232.84V297.41H181.25V300.07Z" fill="black"/>
<path opacity="0.2" d="M302.65 309.93H181.26V312.59H302.65V309.93Z" fill="black"/>
<path opacity="0.2" d="M302.65 317.03H181.26V319.69H302.65V317.03Z" fill="black"/>
<path opacity="0.2" d="M302.65 324.13H181.26V326.79H302.65V324.13Z" fill="black"/>
<path opacity="0.2" d="M302.65 331.23H181.26V333.89H302.65V331.23Z" fill="black"/>
<path opacity="0.2" d="M302.65 338.33H181.26V340.99H302.65V338.33Z" fill="black"/>
<path opacity="0.2" d="M302.65 345.43H181.26V348.09H302.65V345.43Z" fill="black"/>
<path d="M191.9 213C184.56 213 178.3 211.64 176.34 207.94C175.742 206.974 175.534 205.817 175.756 204.703C175.979 203.589 176.617 202.602 177.54 201.94C185.46 195.33 219.07 196.7 224.68 201.11C224.824 201.169 224.951 201.26 225.054 201.376C225.156 201.493 225.229 201.631 225.269 201.781C225.308 201.931 225.312 202.087 225.281 202.239C225.249 202.391 225.183 202.533 225.087 202.655C224.991 202.776 224.869 202.874 224.729 202.94C224.588 203.006 224.435 203.039 224.28 203.035C224.125 203.032 223.973 202.993 223.836 202.921C223.699 202.849 223.581 202.746 223.49 202.62C218.61 198.79 185.89 197.48 178.77 203.42C178.485 203.607 178.24 203.848 178.05 204.131C177.859 204.413 177.726 204.73 177.659 205.064C177.592 205.398 177.592 205.742 177.659 206.076C177.726 206.41 177.859 206.728 178.05 207.01C180.16 211.01 190.87 212.18 204.69 209.92C217.69 207.79 226.85 203.69 227.26 201.18C227.38 200.42 226.39 199.72 225.54 199.27C225.389 199.238 225.247 199.171 225.126 199.075C225.005 198.978 224.908 198.855 224.842 198.715C224.777 198.575 224.745 198.422 224.749 198.267C224.752 198.112 224.792 197.961 224.865 197.824C224.937 197.687 225.04 197.569 225.166 197.479C225.291 197.389 225.436 197.329 225.589 197.305C225.742 197.28 225.898 197.291 226.046 197.337C226.194 197.383 226.329 197.463 226.44 197.57C229 198.92 229.33 200.45 229.16 201.49C228.42 205.99 216.16 210 205 211.82C200.671 212.556 196.291 212.951 191.9 213Z" fill="#FF6B6B"/>
<path d="M306.24 317.63C306.014 317.629 305.796 317.551 305.62 317.41L292.94 306.78C292.799 306.717 292.674 306.621 292.576 306.501C292.478 306.382 292.409 306.241 292.375 306.09C292.341 305.939 292.342 305.782 292.378 305.632C292.415 305.481 292.486 305.342 292.586 305.223C292.686 305.105 292.811 305.011 292.953 304.95C293.096 304.889 293.25 304.861 293.404 304.869C293.559 304.878 293.709 304.922 293.844 304.998C293.979 305.075 294.094 305.182 294.18 305.31L306.86 315.93C307.049 316.099 307.166 316.334 307.188 316.586C307.21 316.839 307.136 317.09 306.98 317.29C306.89 317.399 306.777 317.485 306.649 317.544C306.521 317.603 306.381 317.632 306.24 317.63Z" fill="#FF6B6B"/>
<path d="M296.1 318.13C295.921 318.116 295.749 318.054 295.603 317.951C295.456 317.848 295.339 317.707 295.266 317.543C295.192 317.38 295.164 317.199 295.184 317.021C295.204 316.843 295.272 316.673 295.38 316.53C299.241 312.208 302.538 307.413 305.19 302.26C305.222 302.11 305.288 301.97 305.384 301.849C305.479 301.729 305.6 301.632 305.739 301.567C305.877 301.501 306.029 301.468 306.183 301.47C306.336 301.472 306.487 301.51 306.623 301.58C306.76 301.649 306.878 301.75 306.97 301.873C307.061 301.996 307.124 302.138 307.151 302.289C307.179 302.44 307.172 302.595 307.13 302.743C307.088 302.89 307.013 303.026 306.91 303.14C304.18 308.436 300.789 313.366 296.82 317.81C296.731 317.913 296.62 317.995 296.496 318.05C296.371 318.105 296.236 318.133 296.1 318.13Z" fill="#FF6B6B"/>
<path d="M179 333.86C178.857 333.857 178.715 333.824 178.586 333.762C178.457 333.7 178.342 333.61 178.25 333.5C177.287 332.295 176.603 330.891 176.25 329.39C176.2 329.144 176.244 328.888 176.374 328.673C176.503 328.459 176.709 328.3 176.95 328.23C177.198 328.177 177.456 328.22 177.673 328.35C177.89 328.48 178.05 328.687 178.12 328.93C178.305 329.69 178.595 330.42 178.98 331.1C181.052 327.718 183.598 324.65 186.54 321.99C186.734 321.828 186.982 321.745 187.234 321.758C187.486 321.771 187.724 321.879 187.9 322.06C188.062 322.254 188.145 322.501 188.132 322.754C188.119 323.006 188.011 323.244 187.83 323.42C184.661 326.287 181.977 329.647 179.88 333.37C179.801 333.506 179.691 333.621 179.559 333.706C179.427 333.791 179.276 333.844 179.12 333.86H179Z" fill="#FF6B6B"/>
<path d="M250.25 172.56H250.13L247.84 172.26C247.4 172.253 246.976 172.094 246.641 171.809C246.305 171.525 246.079 171.133 246 170.7C245.553 168.855 245.375 166.956 245.47 165.06V147.16C245.472 147.017 245.504 146.876 245.564 146.747C245.624 146.618 245.712 146.503 245.82 146.41C245.933 146.323 246.062 146.262 246.2 146.229C246.338 146.196 246.481 146.193 246.62 146.22L248.12 146.52C248.316 146.619 248.474 146.78 248.569 146.978C248.664 147.176 248.692 147.399 248.647 147.614C248.603 147.829 248.489 148.023 248.324 148.167C248.158 148.311 247.949 148.396 247.73 148.41L247.39 148.34V165.07C247.302 166.779 247.453 168.493 247.84 170.16V170.31H248.04L250.33 170.61C250.535 170.683 250.711 170.822 250.83 171.004C250.949 171.186 251.006 171.402 250.991 171.619C250.977 171.836 250.891 172.043 250.749 172.207C250.606 172.372 250.413 172.485 250.2 172.53L250.25 172.56Z" fill="#FF6B6B"/>
<path d="M241.37 153.46H241.32C237.2 153.23 233.03 153.1 228.91 153.08C228.645 153.08 228.391 152.975 228.203 152.787C228.016 152.6 227.91 152.345 227.91 152.08C227.91 151.815 228.016 151.56 228.203 151.373C228.391 151.185 228.645 151.08 228.91 151.08C233.06 151.08 237.27 151.24 241.41 151.47C241.618 151.531 241.8 151.657 241.93 151.83C242.06 152.003 242.13 152.214 242.13 152.43C242.13 152.646 242.06 152.857 241.93 153.03C241.8 153.203 241.618 153.329 241.41 153.39L241.37 153.46Z" fill="#FF6B6B"/>
<path d="M232.23 157C232.02 156.961 231.827 156.856 231.681 156.7C231.534 156.543 231.442 156.344 231.417 156.131C231.393 155.919 231.437 155.704 231.544 155.518C231.651 155.332 231.814 155.186 232.01 155.1C234.429 154.656 236.903 154.595 239.34 154.92C240.03 154.98 240.73 155.04 241.42 155.08C241.67 155.103 241.901 155.218 242.07 155.403C242.238 155.588 242.331 155.83 242.33 156.08C242.308 156.329 242.193 156.561 242.007 156.73C241.822 156.898 241.581 156.991 241.33 156.99C240.61 156.99 239.9 156.89 239.19 156.83C236.957 156.524 234.689 156.571 232.47 156.97L232.23 157Z" fill="#FF6B6B"/>
<path d="M241.37 160.54H241.21C240.195 160.421 239.171 160.391 238.15 160.45C237.009 160.513 235.864 160.473 234.73 160.33C234.533 160.237 234.371 160.082 234.269 159.889C234.168 159.695 234.132 159.474 234.169 159.258C234.205 159.043 234.311 158.845 234.47 158.696C234.629 158.546 234.833 158.453 235.05 158.43C236.066 158.549 237.09 158.579 238.11 158.52C239.252 158.457 240.396 158.497 241.53 158.64C241.731 158.719 241.901 158.86 242.015 159.043C242.128 159.225 242.18 159.44 242.162 159.655C242.144 159.869 242.057 160.072 241.915 160.234C241.772 160.395 241.581 160.506 241.37 160.55V160.54Z" fill="#FF6B6B"/>
<path d="M228.4 164.16C228.145 164.16 227.9 164.063 227.714 163.889C227.528 163.714 227.416 163.475 227.4 163.22C227.4 162.965 227.497 162.719 227.672 162.533C227.847 162.347 228.086 162.235 228.34 162.22L241.34 161.94C241.552 161.998 241.739 162.123 241.873 162.298C242.006 162.472 242.078 162.685 242.078 162.905C242.078 163.125 242.006 163.338 241.873 163.512C241.739 163.687 241.552 163.812 241.34 163.87L228.34 164.15L228.4 164.16Z" fill="#FF6B6B"/>
<path d="M241.37 167.6H234.76C234.552 167.539 234.37 167.413 234.24 167.24C234.11 167.067 234.04 166.856 234.04 166.64C234.04 166.424 234.11 166.213 234.24 166.04C234.37 165.867 234.552 165.741 234.76 165.68H241.37C241.578 165.741 241.76 165.867 241.89 166.04C242.02 166.213 242.09 166.424 242.09 166.64C242.09 166.856 242.02 167.067 241.89 167.24C241.76 167.413 241.578 167.539 241.37 167.6Z" fill="#FF6B6B"/>
<path d="M221.57 277H221.2C207.86 276.94 194.45 275.14 181.48 273.39C180.24 273.22 178.35 272.97 177.17 271.61C176.621 270.907 176.29 270.059 176.219 269.17C176.148 268.281 176.34 267.391 176.77 266.61C177.566 265.207 178.793 264.098 180.27 263.45C183.81 261.71 187.84 261.74 191.4 261.75C198.49 261.75 205.82 261.82 213.1 262.01C219.37 262.18 225.43 262.56 230.7 265.36C230.85 265.394 230.991 265.462 231.11 265.559C231.23 265.657 231.325 265.78 231.389 265.92C231.453 266.06 231.484 266.213 231.479 266.367C231.474 266.521 231.434 266.671 231.361 266.807C231.288 266.943 231.185 267.06 231.06 267.149C230.935 267.239 230.79 267.298 230.638 267.323C230.486 267.347 230.331 267.336 230.184 267.291C230.036 267.245 229.902 267.166 229.79 267.06C224.89 264.46 219.08 264.06 213.05 263.94C205.79 263.74 198.47 263.71 191.39 263.68C188.04 263.68 184.25 263.68 181.12 265.18C180.013 265.648 179.087 266.462 178.48 267.5C178.228 267.939 178.107 268.44 178.132 268.946C178.157 269.451 178.326 269.938 178.62 270.35C179.501 271.071 180.602 271.469 181.74 271.48C194.65 273.22 207.99 275.02 221.21 275.07C224.47 275.07 228.21 274.94 230.92 273.07C231.672 272.554 232.313 271.892 232.806 271.125C233.299 270.357 233.634 269.499 233.79 268.6C233.902 268.026 233.894 267.436 233.765 266.866C233.635 266.296 233.389 265.759 233.04 265.29C232.889 265.085 232.821 264.831 232.851 264.578C232.881 264.326 233.006 264.094 233.2 263.93C233.405 263.783 233.658 263.718 233.909 263.75C234.159 263.782 234.388 263.907 234.55 264.1C235.065 264.776 235.432 265.553 235.628 266.379C235.824 267.206 235.846 268.065 235.69 268.9C235.491 270.059 235.061 271.166 234.428 272.157C233.794 273.148 232.969 274.002 232 274.67C228.91 276.76 225 277 221.57 277Z" fill="#FF6B6B"/>
<path d="M296.6 353.46C291.36 353.46 285.87 353.11 280.72 351.18C280.05 350.93 277.99 350.18 277.72 348.27C277.52 346.81 278.52 345.42 280.47 344.46C286.57 341.46 293.6 341.46 299.85 341.64C298.786 341.146 297.673 340.764 296.53 340.5C296.376 340.505 296.224 340.475 296.084 340.412C295.944 340.348 295.821 340.254 295.723 340.135C295.626 340.016 295.557 339.877 295.522 339.727C295.487 339.578 295.487 339.422 295.522 339.273C295.557 339.123 295.626 338.984 295.724 338.865C295.821 338.747 295.945 338.652 296.085 338.589C296.225 338.526 296.378 338.496 296.531 338.501C296.685 338.507 296.835 338.547 296.97 338.62C299.427 339.197 301.748 340.25 303.8 341.72C305.26 342.72 307.67 344.97 307.39 347.9C307.226 348.961 306.781 349.959 306.1 350.789C305.419 351.619 304.528 352.251 303.52 352.62C301.709 353.263 299.79 353.548 297.87 353.46H296.6ZM296.18 343.52C291.18 343.52 285.9 343.92 281.33 346.18C280.45 346.62 279.55 347.33 279.64 348C279.73 348.67 280.64 349.09 281.4 349.38C286.67 351.38 292.4 351.58 297.86 351.53C299.532 351.617 301.206 351.383 302.79 350.84C303.476 350.604 304.086 350.189 304.559 349.639C305.031 349.089 305.349 348.423 305.48 347.71C305.68 345.71 303.59 343.94 302.69 343.29C302.22 342.96 301.75 342.65 301.25 342.36C301.265 342.453 301.265 342.547 301.25 342.64C301.252 342.769 301.227 342.897 301.176 343.016C301.126 343.135 301.051 343.242 300.957 343.33C300.863 343.419 300.752 343.487 300.63 343.53C300.508 343.573 300.379 343.59 300.25 343.58C299 343.55 297.58 343.52 296.18 343.52Z" fill="#FF6B6B"/>
<path d="M382 51.61H354.6C352.362 51.61 350.215 52.4992 348.632 54.082C347.049 55.6648 346.16 57.8116 346.16 60.05V83.89C346.16 86.1284 347.049 88.2752 348.632 89.858C350.215 91.4408 352.362 92.33 354.6 92.33H365.44L368.3 99.85L371.16 92.33H382C383.108 92.33 384.205 92.1116 385.228 91.6873C386.252 91.2631 387.182 90.6412 387.965 89.8574C388.748 89.0735 389.368 88.143 389.791 87.1191C390.214 86.0952 390.431 84.9979 390.43 83.89V60.05C390.431 58.9421 390.214 57.8448 389.791 56.8209C389.368 55.797 388.748 54.8665 387.965 54.0826C387.182 53.2988 386.252 52.6769 385.228 52.2526C384.205 51.8284 383.108 51.61 382 51.61Z" fill="#FF6B6B"/>
<path opacity="0.7" d="M382 51.61H354.6C352.362 51.61 350.215 52.4992 348.632 54.082C347.049 55.6648 346.16 57.8116 346.16 60.05V83.89C346.16 86.1284 347.049 88.2752 348.632 89.858C350.215 91.4408 352.362 92.33 354.6 92.33H365.44L368.3 99.85L371.16 92.33H382C383.108 92.33 384.205 92.1116 385.228 91.6873C386.252 91.2631 387.182 90.6412 387.965 89.8574C388.748 89.0735 389.368 88.143 389.791 87.1191C390.214 86.0952 390.431 84.9979 390.43 83.89V60.05C390.431 58.9421 390.214 57.8448 389.791 56.8209C389.368 55.797 388.748 54.8665 387.965 54.0826C387.182 53.2988 386.252 52.6769 385.228 52.2526C384.205 51.8284 383.108 51.61 382 51.61Z" fill="white"/>
<path d="M381.92 71.87C381.92 74.5598 381.123 77.1892 379.628 79.4257C378.134 81.6622 376.01 83.4054 373.525 84.4348C371.04 85.4641 368.305 85.7334 365.667 85.2087C363.029 84.6839 360.606 83.3886 358.704 81.4866C356.802 79.5846 355.506 77.1614 354.982 74.5232C354.457 71.8851 354.726 69.1506 355.755 66.6655C356.785 64.1804 358.528 62.0564 360.764 60.562C363.001 59.0676 365.63 58.27 368.32 58.27C370.107 58.2687 371.876 58.6195 373.526 59.3025C375.177 59.9855 376.677 60.9873 377.94 62.2504C379.203 63.5135 380.205 65.0133 380.888 66.6639C381.571 68.3146 381.922 70.0836 381.92 71.87Z" fill="#FF6B6B"/>
<path d="M139.6 82.63H112.2C111.092 82.63 109.995 82.8484 108.972 83.2726C107.948 83.6969 107.019 84.3188 106.236 85.1026C105.453 85.8865 104.832 86.817 104.409 87.8409C103.986 88.8648 103.769 89.9621 103.77 91.07V114.91C103.769 116.018 103.986 117.115 104.409 118.139C104.832 119.163 105.453 120.094 106.236 120.877C107.019 121.661 107.948 122.283 108.972 122.707C109.995 123.132 111.092 123.35 112.2 123.35H123L125.86 130.87L128.72 123.35H139.6C141.838 123.35 143.985 122.461 145.568 120.878C147.151 119.295 148.04 117.148 148.04 114.91V91.07C148.04 88.8316 147.151 86.6848 145.568 85.102C143.985 83.5192 141.838 82.63 139.6 82.63Z" fill="#FF6B6B"/>
<path opacity="0.7" d="M139.6 82.63H112.2C111.092 82.63 109.995 82.8484 108.972 83.2726C107.948 83.6969 107.019 84.3188 106.236 85.1026C105.453 85.8865 104.832 86.817 104.409 87.8409C103.986 88.8648 103.769 89.9621 103.77 91.07V114.91C103.769 116.018 103.986 117.115 104.409 118.139C104.832 119.163 105.453 120.094 106.236 120.877C107.019 121.661 107.948 122.283 108.972 122.707C109.995 123.132 111.092 123.35 112.2 123.35H123L125.86 130.87L128.72 123.35H139.6C141.838 123.35 143.985 122.461 145.568 120.878C147.151 119.295 148.04 117.148 148.04 114.91V91.07C148.04 88.8316 147.151 86.6848 145.568 85.102C143.985 83.5192 141.838 82.63 139.6 82.63Z" fill="white"/>
<path d="M128.089 116.302C135.503 115.099 140.538 108.113 139.334 100.699C138.131 93.2847 131.145 88.2501 123.731 89.4535C116.317 90.657 111.282 97.6429 112.486 105.057C113.689 112.471 120.675 117.506 128.089 116.302Z" fill="#FF6B6B"/>
<path d="M124.47 109C124.281 109.006 124.093 108.97 123.92 108.894C123.747 108.818 123.593 108.704 123.47 108.56L118.14 102.27C118.017 102.148 117.921 102.002 117.857 101.841C117.793 101.679 117.764 101.507 117.77 101.333C117.777 101.16 117.82 100.99 117.896 100.834C117.972 100.678 118.079 100.54 118.211 100.428C118.344 100.316 118.498 100.232 118.664 100.183C118.83 100.134 119.005 100.12 119.177 100.141C119.349 100.163 119.515 100.221 119.663 100.31C119.812 100.399 119.94 100.518 120.04 100.66L124.42 105.82L131.66 97.29C131.875 97.0367 132.182 96.8791 132.513 96.852C132.844 96.8248 133.172 96.9302 133.425 97.145C133.679 97.3598 133.836 97.6665 133.863 97.9975C133.891 98.3285 133.785 98.6567 133.57 98.91L125.38 108.56C125.267 108.692 125.128 108.8 124.971 108.875C124.815 108.951 124.644 108.993 124.47 109Z" fill="white"/>
<path d="M364.16 146.54C357.33 147.97 350.05 175.41 350.05 175.41L356.15 181.99L367.06 161.99L364.16 146.54Z" fill="#263238"/>
<path opacity="0.2" d="M367.06 162L366.83 162.43L357.71 179.15L356.15 182L350.05 175.41C350.05 175.41 357.32 147.99 364.15 146.54L367.06 162Z" fill="white"/>
<path opacity="0.1" d="M366.83 162.4L357.71 179.12C357.71 178.84 357.71 178.54 357.71 178.21C358.53 165.49 365.62 158.78 365.62 158.78C366.208 159.917 366.616 161.138 366.83 162.4Z" fill="black"/>
<path d="M415 216.53C415 216.53 394.07 210.97 368.69 219.13C368.69 219.13 364.61 165.97 365.1 158.66C365.59 151.35 404.27 153.5 404.27 153.5C404.27 153.5 405.27 174.78 407.76 187.61C410.25 200.44 416.26 214.06 415 216.53Z" fill="#263238"/>
<path opacity="0.2" d="M415 216.53C415 216.53 394.07 210.97 368.69 219.13C368.69 219.13 364.61 165.97 365.1 158.66C365.59 151.35 404.27 153.5 404.27 153.5C404.27 153.5 405.27 174.78 407.76 187.61C410.25 200.44 416.26 214.06 415 216.53Z" fill="black"/>
<path d="M356.43 354.71L363.26 356.64L364.89 346.01L365.76 340.33L358.93 338.39L357.77 346.01L356.43 354.71Z" fill="#E4897B"/>
<path d="M395.7 355.27L402.74 356.2L402.81 346.01L402.86 339.68L395.8 338.76L395.76 346.01L395.7 355.27Z" fill="#E4897B"/>
<path opacity="0.2" d="M395.8 338.76L395.76 346.01H402.81L402.86 339.68L395.8 338.76Z" fill="black"/>
<path opacity="0.2" d="M357.77 346.01H364.89L365.76 340.33L358.93 338.39L357.77 346.01Z" fill="black"/>
<path d="M356.52 353.64L364.27 353.43C364.411 353.428 364.549 353.473 364.661 353.558C364.773 353.643 364.854 353.764 364.89 353.9L366.52 360.15C366.564 360.302 366.572 360.463 366.542 360.619C366.512 360.775 366.446 360.921 366.348 361.046C366.25 361.171 366.124 361.272 365.98 361.338C365.836 361.405 365.678 361.436 365.52 361.43C362.72 361.43 358.67 361.43 355.15 361.5C351.04 361.61 348.43 361.41 343.6 361.5C340.69 361.58 339.77 358.66 340.98 358.37C346.5 357.01 350.1 357.28 354.8 354.2C355.31 353.858 355.906 353.664 356.52 353.64Z" fill="#263238"/>
<path d="M355.85 354.64C354.71 354.9 352.69 355.24 351.85 354.57C351.73 354.474 351.635 354.35 351.574 354.209C351.513 354.067 351.488 353.913 351.5 353.76C351.501 353.669 351.526 353.58 351.571 353.501C351.617 353.422 351.682 353.356 351.76 353.31C352.61 352.8 355.51 354.17 355.84 354.31C355.873 354.323 355.901 354.347 355.919 354.378C355.938 354.409 355.945 354.445 355.94 354.48C355.941 354.512 355.933 354.544 355.917 354.572C355.901 354.6 355.878 354.624 355.85 354.64ZM352 353.57H351.94C351.907 353.586 351.88 353.612 351.862 353.644C351.844 353.676 351.836 353.713 351.84 353.75C351.83 353.85 351.844 353.95 351.883 354.043C351.921 354.136 351.982 354.217 352.06 354.28C352.51 354.66 353.68 354.69 355.24 354.39C354.12 353.92 352.55 353.37 352 353.57Z" fill="#FF6B6B"/>
<path d="M355.85 354.64H355.73C354.86 354.28 353.1 352.79 353.21 351.99C353.21 351.8 353.35 351.57 353.82 351.51C353.986 351.486 354.156 351.496 354.317 351.541C354.479 351.586 354.63 351.664 354.76 351.77C355.433 352.518 355.852 353.46 355.96 354.46C355.964 354.49 355.959 354.522 355.947 354.55C355.935 354.578 355.915 354.602 355.89 354.62L355.85 354.64ZM353.69 351.88C353.55 351.93 353.54 352.01 353.54 352.03C353.48 352.52 354.68 353.69 355.54 354.19C355.434 353.385 355.085 352.632 354.54 352.03C354.445 351.952 354.334 351.894 354.215 351.862C354.096 351.829 353.972 351.822 353.85 351.84C353.795 351.846 353.741 351.859 353.69 351.88Z" fill="#FF6B6B"/>
<path d="M396 353.64L403.76 353.43C403.901 353.428 404.039 353.473 404.151 353.558C404.264 353.643 404.344 353.764 404.38 353.9L406.01 360.15C406.055 360.302 406.062 360.463 406.032 360.619C406.003 360.775 405.936 360.921 405.838 361.046C405.741 361.171 405.614 361.272 405.47 361.338C405.326 361.405 405.169 361.436 405.01 361.43C402.21 361.43 398.16 361.43 394.65 361.5C390.53 361.61 387.92 361.41 383.1 361.5C380.18 361.58 379.27 358.66 380.48 358.37C385.99 357.01 389.59 357.28 394.29 354.2C394.798 353.861 395.39 353.667 396 353.64Z" fill="#263238"/>
<path d="M395.32 354.64C394.19 354.9 392.16 355.24 391.32 354.57C391.204 354.471 391.111 354.346 391.051 354.206C390.99 354.065 390.962 353.913 390.97 353.76C390.971 353.668 390.997 353.578 391.044 353.498C391.091 353.419 391.159 353.354 391.24 353.31C392.08 352.8 394.99 354.17 395.32 354.31C395.35 354.326 395.375 354.351 395.391 354.381C395.407 354.411 395.414 354.446 395.41 354.48C395.412 354.513 395.404 354.545 395.388 354.573C395.372 354.602 395.349 354.625 395.32 354.64ZM391.48 353.57H391.42C391.387 353.586 391.36 353.612 391.342 353.644C391.324 353.676 391.316 353.713 391.32 353.75C391.309 353.85 391.324 353.95 391.362 354.043C391.401 354.136 391.462 354.217 391.54 354.28C391.99 354.66 393.17 354.69 394.72 354.39C393.58 353.92 392 353.37 391.48 353.57Z" fill="#FF6B6B"/>
<path d="M395.32 354.64H395.19C394.32 354.28 392.57 352.79 392.67 351.99C392.67 351.8 392.82 351.57 393.28 351.51C393.446 351.485 393.616 351.495 393.778 351.54C393.94 351.585 394.09 351.663 394.22 351.77C394.893 352.518 395.313 353.46 395.42 354.46C395.425 354.49 395.422 354.52 395.412 354.548C395.401 354.576 395.383 354.601 395.36 354.62L395.32 354.64ZM393.15 351.88C393.114 351.89 393.082 351.909 393.056 351.936C393.03 351.962 393.01 351.994 393 352.03C392.94 352.52 394.14 353.69 395 354.19C394.894 353.385 394.545 352.632 394 352.03C393.903 351.951 393.791 351.894 393.67 351.861C393.55 351.829 393.424 351.821 393.3 351.84L393.15 351.88Z" fill="#FF6B6B"/>
<path d="M410.22 200.45C413.95 216.63 407.55 343.84 407.55 343.84H395.18L389.89 237.84L370.41 343.84L357.19 342.84C365.83 260.71 373.47 211.68 373.47 211.68V205.48L410.22 200.45Z" fill="#263238"/>
<path d="M403.56 140.55C403.174 148.284 403.372 156.036 404.15 163.74C404.66 169.12 405.38 174.21 406.15 178.8C407.93 189.57 409.95 197.63 410.23 200.45L373.46 205.52C360.05 168.03 365.1 148.13 365.1 148.13L373.53 143.33C373.53 143.33 374.76 143 375.39 142.85C380.548 141.836 385.76 141.119 391 140.7C392 140.61 393 140.54 394 140.5C399 140.27 403.56 140.55 403.56 140.55Z" fill="#FF6B6B"/>
<g opacity="0.7">
<path d="M403.56 140.55C403.174 148.284 403.372 156.036 404.15 163.74C404.66 169.12 405.38 174.21 406.15 178.8C407.93 189.57 409.95 197.63 410.23 200.45L373.46 205.52C360.05 168.03 365.1 148.13 365.1 148.13L373.53 143.33C373.53 143.33 374.76 143 375.39 142.85C380.548 141.836 385.76 141.119 391 140.7C392 140.61 393 140.54 394 140.5C399 140.27 403.56 140.55 403.56 140.55Z" fill="white"/>
</g>
<path d="M389.72 140.52C389.72 140.52 381.29 147.18 378.72 147.15C376.94 147.15 374.36 144.22 374.36 144.22C375.45 143.708 376.403 142.943 377.14 141.99C378.9 139.58 377.88 136.65 376.45 133.99L383.84 123.71C383.984 126.215 384.318 128.706 384.84 131.16C385.66 135.14 387.16 139.05 389.72 140.52Z" fill="#E4897B"/>
<path opacity="0.2" d="M384.83 131.13C384.06 135.63 382.09 140.81 377.17 141.98C378.93 139.57 377.91 136.64 376.48 133.98L383.87 123.7C384.002 126.197 384.323 128.681 384.83 131.13Z" fill="black"/>
<path d="M362.77 119.59C362.47 122.37 364 127.66 367.31 125.18C370.62 122.7 363.29 114.8 362.77 119.59Z" fill="#263238"/>
<path d="M382.34 119.35C384.09 126 385.46 129.8 383.25 134.2C379.94 140.82 370.87 140.42 367.16 134.41C363.82 129 361.52 119.04 367.07 114.41C368.3 113.382 369.77 112.682 371.344 112.376C372.918 112.071 374.544 112.169 376.069 112.663C377.595 113.156 378.97 114.028 380.066 115.198C381.163 116.367 381.945 117.796 382.34 119.35Z" fill="#E4897B"/>
<path d="M376.89 116.64L375.39 109.12C375.39 109.12 383.27 106.92 383.74 111.12C388.61 112.43 388.87 122.6 383.59 127.12C379.81 125.18 378 116 378 116C377.63 116.19 377.27 116.41 376.89 116.64Z" fill="#263238"/>
<path d="M386.65 124C386.657 124.853 386.494 125.699 386.171 126.489C385.849 127.278 385.372 127.996 384.77 128.6C383.15 130.21 381.2 129.02 380.71 126.91C380.27 125.01 380.58 121.91 382.71 121.07C383.167 120.919 383.654 120.88 384.129 120.957C384.605 121.034 385.055 121.224 385.441 121.511C385.828 121.799 386.139 122.175 386.349 122.608C386.56 123.041 386.663 123.519 386.65 124Z" fill="#E4897B"/>
<path d="M373 124.34C373.18 124.87 373 125.34 372.69 125.5C372.38 125.66 371.91 125.27 371.74 124.74C371.57 124.21 371.74 123.69 372.05 123.58C372.36 123.47 372.83 123.81 373 124.34Z" fill="#263238"/>
<path d="M367 126.26C367.18 126.79 367 127.31 366.69 127.43C366.38 127.55 365.91 127.2 365.74 126.67C365.57 126.14 365.74 125.61 366.05 125.5C366.36 125.39 366.81 125.73 367 126.26Z" fill="#263238"/>
<path d="M369 125.92C368.856 127.698 368.469 129.447 367.85 131.12C368.299 131.247 368.769 131.279 369.23 131.214C369.692 131.148 370.135 130.987 370.53 130.74L369 125.92Z" fill="#DE5753"/>
<path d="M374 131.86C373.78 131.965 373.552 132.056 373.32 132.13C373.3 132.136 373.278 132.138 373.257 132.136C373.236 132.134 373.215 132.127 373.197 132.117C373.178 132.107 373.162 132.093 373.149 132.076C373.135 132.06 373.126 132.04 373.12 132.02C373.107 131.979 373.11 131.934 373.128 131.895C373.147 131.856 373.18 131.826 373.22 131.81C373.886 131.616 374.497 131.267 375.001 130.79C375.505 130.314 375.889 129.724 376.12 129.07C376.126 129.05 376.135 129.03 376.149 129.014C376.162 128.997 376.178 128.983 376.197 128.973C376.215 128.963 376.236 128.956 376.257 128.954C376.278 128.952 376.3 128.954 376.32 128.96C376.341 128.965 376.361 128.974 376.379 128.986C376.397 128.999 376.412 129.015 376.423 129.034C376.434 129.053 376.442 129.074 376.445 129.095C376.447 129.117 376.446 129.139 376.44 129.16C376.241 129.754 375.921 130.3 375.502 130.765C375.082 131.229 374.57 131.602 374 131.86Z" fill="#263238"/>
<path d="M374.23 121.81C374.18 121.839 374.123 121.854 374.065 121.854C374.007 121.854 373.95 121.839 373.9 121.81C373.566 121.565 373.18 121.401 372.772 121.332C372.364 121.263 371.946 121.289 371.55 121.41C371.509 121.429 371.465 121.439 371.421 121.441C371.376 121.442 371.332 121.435 371.29 121.418C371.248 121.402 371.211 121.378 371.179 121.346C371.147 121.315 371.122 121.277 371.105 121.236C371.088 121.195 371.079 121.15 371.08 121.106C371.081 121.061 371.091 121.017 371.109 120.976C371.127 120.936 371.153 120.899 371.186 120.869C371.219 120.838 371.258 120.815 371.3 120.8C371.801 120.632 372.336 120.588 372.859 120.672C373.381 120.755 373.875 120.964 374.3 121.28C374.336 121.303 374.367 121.333 374.391 121.369C374.415 121.404 374.431 121.444 374.44 121.486C374.448 121.528 374.448 121.571 374.439 121.613C374.431 121.655 374.414 121.695 374.39 121.73C374.345 121.771 374.289 121.799 374.23 121.81Z" fill="#263238"/>
<path d="M363.7 125C363.641 125.015 363.579 125.015 363.52 125C363.434 124.985 363.357 124.939 363.304 124.871C363.25 124.803 363.224 124.717 363.23 124.63C363.293 124.114 363.477 123.62 363.767 123.189C364.057 122.758 364.445 122.402 364.9 122.15C364.98 122.115 365.07 122.112 365.152 122.142C365.234 122.172 365.301 122.232 365.34 122.31C365.378 122.388 365.384 122.478 365.356 122.561C365.327 122.643 365.268 122.711 365.19 122.75C364.823 122.948 364.512 123.235 364.285 123.584C364.058 123.934 363.922 124.334 363.89 124.75C363.88 124.804 363.857 124.854 363.825 124.897C363.792 124.941 363.749 124.976 363.7 125Z" fill="#263238"/>
<path d="M378 116C378 116 365.62 122.9 360.2 119.66C354.78 116.42 360.2 113.66 360.2 113.66C360.2 113.66 358.49 115.56 360.1 116.51C360.1 116.51 360.46 111.18 365.1 109.51C364.744 109.961 364.492 110.486 364.364 111.047C364.236 111.607 364.235 112.189 364.36 112.75C366.867 110.812 369.742 109.404 372.81 108.61C378.13 107.06 392.45 108.07 378 116Z" fill="#263238"/>
<path d="M378.74 147.15C378.74 147.15 380.8 149.02 383.15 150.83C385.97 148.95 392.52 144.04 391.73 140.32C391.18 139.32 388.24 138.93 388.24 138.93C388.24 138.93 385.61 143.35 378.74 147.15Z" fill="#FF6B6B"/>
<path d="M378.74 147.15C377.402 148.518 376.267 150.07 375.37 151.76C372.98 150.59 373.26 143.47 373.98 142.6C375.066 141.808 376.336 141.305 377.67 141.14C377.344 142.153 377.272 143.23 377.458 144.278C377.645 145.326 378.085 146.312 378.74 147.15Z" fill="#FF6B6B"/>
<g opacity="0.5">
<path d="M378.74 147.15C378.74 147.15 380.8 149.02 383.15 150.83C385.97 148.95 392.52 144.04 391.73 140.32C391.18 139.32 388.24 138.93 388.24 138.93C388.24 138.93 385.61 143.35 378.74 147.15Z" fill="white"/>
<path d="M378.74 147.15C377.402 148.518 376.267 150.07 375.37 151.76C372.98 150.59 373.26 143.47 373.98 142.6C375.066 141.808 376.336 141.305 377.67 141.14C377.344 142.153 377.272 143.23 377.458 144.278C377.645 145.326 378.085 146.312 378.74 147.15Z" fill="white"/>
</g>
<path d="M391.73 140.32C392.131 149.467 393.332 158.562 395.32 167.5C398.04 179.62 402.79 193.19 411.09 202.3C411.09 202.3 414.96 211.18 413.7 218.96C413.7 218.96 416.23 217.96 416.7 216.49C417.17 215.02 409.85 197.42 408.07 184.04C406.29 170.66 405.28 140.28 405.28 140.28C402.24 139.848 399.164 139.731 396.1 139.93C394.8 140 393.32 140.14 391.73 140.32Z" fill="#263238"/>
<path opacity="0.2" d="M416.74 216.52C416.23 217.96 413.74 219 413.74 219C415 211.21 411.14 202.34 411.14 202.34C410.61 201.76 410.14 201.16 409.59 200.55C404.93 194.81 401.49 187.65 398.95 180.27C397.516 176.095 396.32 171.841 395.37 167.53C395.26 167.06 395.17 166.6 395.06 166.14C393.288 157.755 392.191 149.241 391.78 140.68C391.78 140.47 391.78 140.36 391.78 140.36C393.38 140.18 394.86 140.07 396.21 140C399.271 139.8 402.344 139.921 405.38 140.36C405.38 140.36 405.62 147.42 406.06 156.22C406.06 156.36 406.06 156.48 406.06 156.62C406.19 159.15 406.34 161.8 406.49 164.48C406.79 169.48 407.14 174.48 407.56 178.79C407.74 180.74 407.94 182.55 408.14 184.12C409.89 197.46 417.25 215.1 416.74 216.52Z" fill="white"/>
<path d="M391.73 140.32C392.131 149.467 393.332 158.562 395.32 167.5L400.18 148.1L395.04 147.61L400.18 144.61L396.18 139.95C394.8 140 393.32 140.14 391.73 140.32Z" fill="#263238"/>
<path d="M368.43 221L369.75 221.95C368.501 206.156 368.12 190.306 368.61 174.47C368.61 173.16 368.7 171.9 368.75 170.7C369.75 147.75 373.29 143.58 373.52 143.33L370.19 144.46L364.19 146.54C362.38 166.12 368.43 221 368.43 221Z" fill="#263238"/>
<path opacity="0.2" d="M368.43 221L369.75 221.95C368.501 206.156 368.12 190.306 368.61 174.47C368.61 173.16 368.7 171.9 368.75 170.7C369.75 147.75 373.29 143.58 373.52 143.33L370.19 144.46L364.19 146.54C362.38 166.12 368.43 221 368.43 221Z" fill="white"/>
<path d="M369.94 151.37L366.13 153.75C366.13 153.75 367.13 164.98 368.75 170.7C369.75 147.75 373.29 143.58 373.52 143.33L370.19 144.46C368.359 146.155 366.828 148.146 365.66 150.35L369.94 151.37Z" fill="#263238"/>
<path opacity="0.2" d="M404.25 156.91C404.476 159.541 405.224 162.101 406.45 164.44C406.3 161.77 406.15 159.11 406.02 156.58C405.413 156.56 404.809 156.673 404.25 156.91Z" fill="black"/>
<path opacity="0.2" d="M385.74 260.38L389.89 237.82L389.09 225.89C389.09 225.89 383.41 246.59 385.74 260.38Z" fill="black"/>
<path opacity="0.1" d="M407.53 178.75C407.09 178.917 406.65 179.067 406.21 179.2C403.834 179.877 401.38 180.237 398.91 180.27C397.221 180.315 395.532 180.222 393.86 179.99C375.93 177.26 375.39 173.58 375.39 173.58C375.39 173.58 386.62 172.83 391.95 169.58C393.236 168.687 394.283 167.492 395 166.1C398.38 160.29 400.18 150.31 400.18 150.31C400.18 150.31 401.56 151.54 403.46 153.48C404.24 154.27 405.1 155.18 405.99 156.18C405.99 156.32 405.99 156.44 405.99 156.58C406.12 159.11 406.27 161.76 406.42 164.44C406.76 169.44 407.11 174.47 407.53 178.75Z" fill="black"/>
<path d="M374.32 167.7L374.52 172.25C373.02 176.79 367.52 173.86 367.52 173.86L364.3 173.51C363.737 173.415 363.226 173.122 362.859 172.684C362.493 172.246 362.294 171.691 362.3 171.12L362.13 167.94C362.058 167.289 362.243 166.637 362.644 166.12C363.045 165.603 363.632 165.262 364.28 165.17L367.1 165C367.922 164.95 368.745 165.108 369.49 165.46L374.32 167.7Z" fill="#E4897B"/>
<path d="M405.33 140.32C416.06 143.32 407.18 176.32 403.25 177.4C395.8 179.48 373.52 175.4 373.52 175.4V166.7C373.52 166.7 394.97 168.8 396.78 168C399.12 167 400.25 154.5 400.78 148.62C400.864 146.983 401.317 145.386 402.105 143.949C402.893 142.512 403.995 141.271 405.33 140.32Z" fill="#263238"/>
<path opacity="0.2" d="M405.33 140.32C416.06 143.32 407.18 176.32 403.25 177.4C395.8 179.48 373.52 175.4 373.52 175.4V166.7C373.52 166.7 394.97 168.8 396.78 168C399.12 167 400.25 154.5 400.78 148.62C400.864 146.983 401.317 145.386 402.105 143.949C402.893 142.512 403.995 141.271 405.33 140.32Z" fill="white"/>
<path d="M363.7 186L346.25 187.6C345.904 187.616 345.562 187.523 345.272 187.335C344.981 187.146 344.757 186.872 344.63 186.55L335.28 161.32C335.221 161.168 335.2 161.003 335.219 160.841C335.239 160.679 335.297 160.524 335.39 160.39C335.458 160.285 335.548 160.197 335.653 160.129C335.758 160.062 335.876 160.018 336 160L353.48 158.4C353.826 158.388 354.168 158.483 354.458 158.673C354.748 158.863 354.972 159.138 355.1 159.46L364.44 184.69C364.514 184.822 364.553 184.971 364.552 185.122C364.552 185.273 364.513 185.422 364.439 185.553C364.364 185.685 364.257 185.795 364.128 185.873C363.998 185.952 363.851 185.995 363.7 186Z" fill="#263238"/>
<path opacity="0.6" d="M363.7 186L346.25 187.6C345.904 187.616 345.562 187.523 345.272 187.335C344.981 187.146 344.757 186.872 344.63 186.55L335.28 161.32C335.221 161.168 335.2 161.003 335.219 160.841C335.239 160.679 335.297 160.524 335.39 160.39C335.458 160.285 335.548 160.197 335.653 160.129C335.758 160.062 335.876 160.018 336 160L353.48 158.4C353.826 158.388 354.168 158.483 354.458 158.673C354.748 158.863 354.972 159.138 355.1 159.46L364.44 184.69C364.514 184.822 364.553 184.971 364.552 185.122C364.552 185.273 364.513 185.422 364.439 185.553C364.364 185.685 364.257 185.795 364.128 185.873C363.998 185.952 363.851 185.995 363.7 186Z" fill="white"/>
<path opacity="0.2" d="M363.66 186L346.21 187.6C345.864 187.616 345.522 187.523 345.232 187.335C344.941 187.146 344.717 186.872 344.59 186.55L335.24 161.32C335.181 161.168 335.16 161.003 335.179 160.841C335.198 160.679 335.257 160.524 335.35 160.39L352.79 158.79C353.137 158.776 353.479 158.871 353.769 159.061C354.059 159.251 354.283 159.527 354.41 159.85L363.76 185.08C363.819 185.23 363.84 185.392 363.823 185.552C363.805 185.712 363.749 185.866 363.66 186Z" fill="white"/>
<path opacity="0.2" d="M349.92 172.59C349.969 172.939 349.917 173.295 349.772 173.616C349.626 173.937 349.392 174.21 349.097 174.403C348.803 174.597 348.459 174.702 348.106 174.708C347.754 174.713 347.407 174.618 347.107 174.434C346.806 174.25 346.564 173.984 346.408 173.668C346.253 173.351 346.191 172.997 346.229 172.647C346.267 172.296 346.404 171.964 346.623 171.688C346.843 171.413 347.137 171.205 347.47 171.09C347.729 171.023 348 171.009 348.265 171.049C348.53 171.089 348.784 171.181 349.012 171.321C349.241 171.461 349.439 171.646 349.595 171.863C349.751 172.081 349.861 172.328 349.92 172.59Z" fill="black"/>
<path d="M338 175.17L339.87 179.25C343.12 183.2 346.29 180.18 346.29 180.18L348.75 179.65C349.59 179.46 349.82 178.5 349.31 177.36L348 174.51C347.746 173.895 347.336 173.357 346.809 172.95C346.283 172.543 345.659 172.281 345 172.19L342.64 172.25C342.013 172.24 341.4 172.441 340.9 172.82L338 175.17Z" fill="#E4897B"/>
<path d="M160.05 215L159.31 213.19C159.173 212.854 158.957 212.556 158.68 212.321C158.403 212.086 158.074 211.921 157.72 211.84L154.38 211.05C153.72 210.896 153.032 210.902 152.375 211.067C151.718 211.233 151.109 211.552 150.6 212L149.96 212.56C150.96 215.65 154.37 218.22 154.37 218.22L155.25 219.07C155.426 219.248 155.635 219.389 155.866 219.486C156.097 219.583 156.345 219.632 156.595 219.632C156.845 219.632 157.093 219.583 157.324 219.486C157.555 219.389 157.764 219.248 157.94 219.07L159.63 217.34C159.919 217.032 160.112 216.648 160.187 216.232C160.262 215.817 160.214 215.389 160.05 215Z" fill="#EBB376"/>
<path d="M120.1 180.84C124.92 188.13 129.49 195.57 133.96 203.08L132.2 201.66C135.71 203.11 139.2 204.66 142.68 206.18C145.68 207.58 150.08 209.57 153.03 211.1C153.433 211.339 153.74 211.712 153.896 212.153C154.053 212.595 154.049 213.078 153.886 213.517C153.723 213.957 153.41 214.325 153.004 214.557C152.597 214.79 152.121 214.872 151.66 214.79C144.37 212.99 136.83 210.7 129.71 208.38C128.969 208.134 128.341 207.63 127.94 206.96C122.94 199.78 118.07 192.54 113.42 185.14C112.99 184.26 112.899 183.253 113.162 182.31C113.426 181.366 114.026 180.553 114.85 180.023C115.673 179.493 116.662 179.283 117.63 179.434C118.598 179.584 119.476 180.085 120.1 180.84Z" fill="#E9B376"/>
<path d="M128.94 193L120 197.11L119 196.11L115.17 192.28L114.64 191.75L118.11 174.54C124.33 178.45 128.94 193 128.94 193Z" fill="#263238"/>
<path opacity="0.2" d="M119 196.13L115.17 192.3C115.902 189.602 117.394 187.172 119.47 185.3C120.219 188.893 120.057 192.616 119 196.13Z" fill="black"/>
<path d="M91.92 176.45C90.55 181.17 90.06 185.27 89.1 188.66C87.4 194.66 83.3 210.25 81.23 213.92L108.66 215.27C113 207.89 120 190 121 187.64C121.773 185.824 122.086 183.846 121.912 181.88C121.737 179.914 121.081 178.021 120 176.37C119.493 175.657 118.859 175.044 118.13 174.56C117.05 173.85 115.91 173.12 114.79 172.46C111.167 170.486 107.157 169.326 103.04 169.06C95.54 169.05 93 172.71 91.92 176.45Z" fill="#263238"/>
<path d="M130.84 354.7L135.3 353.48C133.66 331.01 129.25 303.9 125.51 283.57C124.92 280.38 124.35 277.37 123.81 274.57C123.54 273.24 123.3 271.95 123.05 270.72C121.86 264.63 120.86 259.81 120.24 256.84C119.78 254.67 119.52 253.47 119.52 253.47L103.52 258.12L104.85 262.12L109.26 275.44L109.76 276.97L112.67 285.77L117.62 300.77C118.29 323.7 130.84 354.7 130.84 354.7Z" fill="#EBB376"/>
<path d="M91.9998 353.61L96.5998 353.17C99.0098 328.8 99.0998 298.46 98.7798 277.38C98.7198 274.11 98.6598 271.06 98.5998 268.29C98.5998 268.15 98.5998 268.02 98.5998 267.88C98.4698 262.39 98.3298 258.03 98.2298 255.27L98.0898 251.92L81.5098 253.77L82.5098 260.67L83.9998 270.81L84.2998 272.81L85.2998 279.72L88.0698 298.24C84.8898 320.92 91.9998 353.61 91.9998 353.61Z" fill="#EBB376"/>
<path opacity="0.2" d="M83.9998 270.81L98.5698 268.29C98.5698 268.15 98.5698 268.02 98.5698 267.88C98.4398 262.39 98.2998 258.03 98.1998 255.27L82.5098 260.67L83.9998 270.81Z" fill="black"/>
<path opacity="0.2" d="M121.84 264.62L106.51 267.22L104.84 262.15L120.24 256.83C120.63 258.72 121.19 261.37 121.84 264.62Z" fill="black"/>
<path d="M82.1198 210C82.1198 210 72.1798 233.23 81.4698 266.91L99.5798 264.84V247.48L103.5 264.21L121.66 260.56C116.08 233.23 111 220.83 111 220.83L110.09 211.57L82.1198 210Z" fill="#FF6B6B"/>
<path d="M90.9697 216.23L105.93 216.84V212.21L90.9697 211.56V216.23Z" fill="#263238"/>
<path d="M89.6497 211.51L82.1397 211.19L81.4697 215.85L89.6497 216.18V211.51Z" fill="#263238"/>
<path d="M107.08 212.25V216.89L110.44 217.03V212.4L107.08 212.25Z" fill="#263238"/>
<path d="M104.55 212.55C104.195 212.187 103.717 211.973 103.21 211.95L99.6799 211.8C99.4751 211.779 99.2682 211.801 99.0726 211.866C98.8771 211.93 98.6974 212.035 98.5454 212.174C98.3933 212.313 98.2724 212.482 98.1904 212.671C98.1085 212.86 98.0674 213.064 98.0699 213.27V215.43C98.0817 215.921 98.2865 216.388 98.6399 216.73C98.9578 217.057 99.3776 217.265 99.8299 217.32H99.9899L103.52 217.46C103.724 217.48 103.93 217.456 104.124 217.391C104.318 217.326 104.497 217.221 104.648 217.082C104.799 216.943 104.919 216.774 105 216.586C105.081 216.398 105.122 216.195 105.12 215.99V213.84C105.101 213.353 104.898 212.892 104.55 212.55ZM103.44 216.61L99.9099 216.47C99.6622 216.46 99.4285 216.352 99.2599 216.17C99.1728 216.09 99.103 215.992 99.0549 215.884C99.0067 215.776 98.9812 215.659 98.9799 215.54V213.38C98.9795 213.281 98.9999 213.182 99.0398 213.091C99.0798 213 99.1385 212.918 99.212 212.852C99.2855 212.785 99.3723 212.734 99.4667 212.703C99.5611 212.671 99.661 212.66 99.7599 212.67L103.29 212.82H103.37C103.587 212.852 103.787 212.954 103.94 213.11C104.026 213.191 104.094 213.289 104.14 213.397C104.187 213.505 104.211 213.622 104.21 213.74V214.07C104.167 214.061 104.123 214.061 104.08 214.07L103.08 214.02C103.005 214.012 102.93 214.021 102.859 214.046C102.789 214.071 102.724 214.111 102.671 214.164C102.617 214.216 102.576 214.28 102.55 214.35C102.524 214.42 102.514 214.495 102.52 214.57C102.542 214.731 102.619 214.879 102.737 214.99C102.856 215.101 103.008 215.168 103.17 215.18L104.17 215.23V215.94C104.166 216.032 104.144 216.122 104.105 216.206C104.067 216.289 104.012 216.364 103.944 216.426C103.876 216.489 103.797 216.537 103.71 216.568C103.624 216.6 103.532 216.614 103.44 216.61Z" fill="white"/>
<path d="M89.7998 352.67C89.7998 352.1 96.9198 352.55 96.9198 352.55C96.9198 352.55 101.29 356.99 105.53 357.99C109.77 358.99 107.41 361.54 102.66 361.54H90.9198C87.5498 361.54 89.6598 358.67 89.7998 352.67Z" fill="#263238"/>
<path d="M100.65 354.37C99.6255 354.239 98.6312 353.935 97.7096 353.47C97.6855 353.459 97.6648 353.442 97.6496 353.42C97.635 353.374 97.635 353.326 97.6496 353.28C97.6496 353.2 98.2796 351.55 99.2396 351.15C99.3838 351.084 99.5408 351.049 99.6996 351.049C99.8584 351.049 100.015 351.084 100.16 351.15C100.48 351.3 100.64 351.5 100.63 351.75C100.62 352 100.1 352.5 99.5196 352.75C100.056 352.661 100.607 352.724 101.11 352.93C101.203 352.979 101.285 353.047 101.351 353.129C101.416 353.212 101.464 353.308 101.49 353.41C101.542 353.539 101.555 353.681 101.524 353.817C101.494 353.953 101.422 354.076 101.32 354.17C101.128 354.315 100.89 354.386 100.65 354.37ZM98.3596 353.37C99.3596 353.81 100.71 354.2 101.04 353.93C101.04 353.93 101.16 353.83 101.04 353.55C101.008 353.444 100.936 353.354 100.84 353.3C100.024 353.093 99.1666 353.11 98.3596 353.35V353.37ZM99.6296 351.37C99.53 351.372 99.4316 351.392 99.3396 351.43C98.7756 351.809 98.348 352.36 98.1196 353C99.1796 352.6 100.19 352 100.21 351.73C100.21 351.63 100.06 351.54 99.9596 351.49C99.8582 351.433 99.7455 351.399 99.6296 351.39V351.37Z" fill="#FF6B6B"/>
<path d="M129.57 352.67C129.57 352.1 136.69 352.55 136.69 352.55C136.69 352.55 141.06 356.99 145.31 357.99C149.56 358.99 147.18 361.54 142.44 361.54H130.7C127.32 361.54 129.43 358.67 129.57 352.67Z" fill="#263238"/>
<path d="M140.43 354.37C139.386 354.243 138.371 353.939 137.43 353.47L137.37 353.42C137.36 353.398 137.354 353.374 137.354 353.35C137.354 353.326 137.36 353.302 137.37 353.28C137.37 353.2 137.99 351.55 138.95 351.15C139.094 351.084 139.251 351.049 139.41 351.049C139.568 351.049 139.725 351.084 139.87 351.15C140.2 351.3 140.35 351.5 140.34 351.75C140.33 352 139.81 352.5 139.23 352.75C139.769 352.663 140.323 352.725 140.83 352.93C140.923 352.979 141.005 353.047 141.071 353.129C141.136 353.212 141.184 353.308 141.21 353.41C141.257 353.54 141.266 353.68 141.236 353.815C141.206 353.95 141.138 354.073 141.04 354.17C140.864 354.302 140.649 354.372 140.43 354.37ZM138.13 353.37C139.18 353.81 140.48 354.2 140.82 353.93C140.82 353.93 140.94 353.83 140.82 353.55C140.805 353.497 140.78 353.447 140.746 353.404C140.711 353.361 140.668 353.326 140.62 353.3C139.8 353.091 138.94 353.108 138.13 353.35V353.37ZM139.41 351.37C139.31 351.37 139.211 351.39 139.12 351.43C138.55 351.804 138.121 352.356 137.9 353C138.9 352.6 139.97 352 139.99 351.73C139.99 351.63 139.83 351.54 139.73 351.49C139.631 351.434 139.522 351.4 139.41 351.39V351.37Z" fill="#FF6B6B"/>
<path opacity="0.2" d="M99.5796 247.48C102.68 241.08 104.84 235.82 104.84 235.82C104.84 235.82 105.52 252.01 103.5 264.21L99.5796 247.48Z" fill="black"/>
<path d="M160.364 202.887L163.54 213.314L181.275 207.912L178.099 197.485L160.364 202.887Z" fill="#263238"/>
<path opacity="0.1" d="M160.364 202.887L163.54 213.314L181.275 207.912L178.099 197.485L160.364 202.887Z" fill="white"/>
<path opacity="0.3" d="M180.545 205.539L162.8 210.944L163.525 213.326L181.27 207.921L180.545 205.539Z" fill="black"/>
<path d="M213.319 225.612C232.017 224.77 246.491 208.929 245.649 190.231C244.806 171.533 228.966 157.059 210.268 157.901C191.57 158.744 177.095 174.584 177.938 193.282C178.78 211.98 194.621 226.455 213.319 225.612Z" fill="#FF6B6B"/>
<path opacity="0.8" d="M213.319 225.612C232.017 224.77 246.491 208.929 245.649 190.231C244.806 171.533 228.966 157.059 210.268 157.901C191.57 158.744 177.095 174.584 177.938 193.282C178.78 211.98 194.621 226.455 213.319 225.612Z" fill="white"/>
<path opacity="0.2" d="M246 187.39V203.44H187.33V168.31C191.337 164.12 196.36 161.037 201.91 159.36C203.1 159.001 204.308 158.704 205.53 158.47H218C224.083 159.613 229.737 162.399 234.349 166.528C238.961 170.657 242.354 175.97 244.16 181.89C244.637 183.462 245.001 185.066 245.25 186.69L246 187.39Z" fill="black"/>
<path opacity="0.4" d="M246.02 187.39V203.44H187.33V197.32L206.09 181.86L216.67 191.56L234.51 176.49L245.29 186.69V186.7L246.02 187.39Z" fill="white"/>
<path opacity="0.4" d="M206 171.48C206.002 172.537 205.69 173.571 205.104 174.45C204.518 175.33 203.684 176.016 202.708 176.422C201.732 176.827 200.657 176.934 199.62 176.728C198.584 176.522 197.631 176.013 196.884 175.266C196.136 174.519 195.628 173.566 195.422 172.529C195.216 171.493 195.323 170.418 195.728 169.442C196.134 168.466 196.82 167.632 197.699 167.046C198.579 166.46 199.613 166.148 200.67 166.15C201.37 166.15 202.063 166.288 202.71 166.556C203.356 166.824 203.944 167.216 204.439 167.711C204.934 168.206 205.326 168.794 205.594 169.44C205.862 170.087 206 170.78 206 171.48Z" fill="white"/>
<path opacity="0.2" d="M237.65 213.66C236.917 214.536 236.136 215.371 235.31 216.16H187.31V213.66H237.65Z" fill="black"/>
<path opacity="0.2" d="M230 220.36C228.494 221.321 226.912 222.157 225.27 222.86H198.27C196.634 222.156 195.059 221.32 193.56 220.36H230Z" fill="black"/>
<path d="M185 212.35L184.92 212.42C184.55 211.94 184.19 211.42 183.85 210.95C191.34 204.71 223.03 206 228.32 210.17C228.413 210.244 228.491 210.335 228.549 210.438C228.607 210.542 228.644 210.656 228.658 210.774C228.672 210.892 228.662 211.011 228.63 211.126C228.598 211.24 228.543 211.347 228.47 211.44C228.396 211.533 228.305 211.611 228.201 211.669C228.098 211.727 227.984 211.764 227.866 211.778C227.748 211.792 227.628 211.783 227.514 211.75C227.4 211.718 227.293 211.664 227.2 211.59C222.59 208 191.7 206.75 185 212.35Z" fill="#FF6B6B"/>
<path d="M232.53 210.53C231.84 214.78 220.23 218.53 209.74 220.28C205.655 220.963 201.522 221.324 197.38 221.36C196.63 221.36 195.9 221.36 195.18 221.31C194.64 221.01 194.11 220.7 193.59 220.36C193.07 220.02 192.48 219.63 191.94 219.23C197.78 219.802 203.671 219.55 209.44 218.48C221.7 216.48 230.36 212.6 230.74 210.24C230.86 209.52 229.92 208.86 229.12 208.43C228.908 208.315 228.75 208.122 228.679 207.893C228.608 207.663 228.63 207.414 228.74 207.2C228.854 206.988 229.048 206.83 229.279 206.761C229.509 206.692 229.758 206.716 229.97 206.83C232.39 208.1 232.7 209.55 232.53 210.53Z" fill="#FF6B6B"/>
<path d="M241.27 175.06L231.84 175.26C231.603 175.258 231.376 175.164 231.206 174.998C231.036 174.832 230.937 174.607 230.93 174.37C230.928 174.25 230.951 174.132 230.995 174.021C231.04 173.91 231.106 173.809 231.189 173.724C231.273 173.638 231.372 173.57 231.482 173.523C231.592 173.476 231.71 173.451 231.83 173.45L240.19 173.26C240.56 173.85 240.93 174.45 241.27 175.06Z" fill="#FF6B6B"/>
<path d="M243 178.51H237.86C237.618 178.51 237.387 178.414 237.216 178.243C237.046 178.073 236.95 177.841 236.95 177.6C236.95 177.359 237.046 177.127 237.216 176.957C237.387 176.786 237.618 176.69 237.86 176.69H242.16C242.43 177.28 242.71 177.89 243 178.51Z" fill="#FF6B6B"/>
<path d="M201.83 159.64C194.944 161.736 188.835 165.827 184.275 171.396C179.715 176.964 176.908 183.76 176.21 190.923C175.512 198.087 176.954 205.296 180.354 211.64C183.753 217.984 188.957 223.178 195.309 226.564C201.66 229.95 208.872 231.376 216.034 230.663C223.196 229.95 229.986 227.129 235.545 222.557C241.104 217.985 245.182 211.867 247.263 204.977C249.345 198.088 249.337 190.735 247.24 183.85C244.428 174.618 238.064 166.881 229.549 162.341C221.033 157.801 211.062 156.829 201.83 159.64ZM203.09 163.77C209.161 161.919 215.644 161.91 221.72 163.744C227.796 165.578 233.191 169.174 237.223 174.075C241.255 178.977 243.742 184.964 244.37 191.28C244.998 197.595 243.739 203.955 240.752 209.555C237.764 215.155 233.183 219.742 227.587 222.738C221.992 225.733 215.634 227.001 209.317 226.382C203.001 225.762 197.01 223.283 192.103 219.258C187.196 215.233 183.593 209.843 181.75 203.77C179.282 195.636 180.143 186.855 184.144 179.355C188.145 171.855 194.959 166.25 203.09 163.77Z" fill="#263238"/>
<path opacity="0.1" d="M201.83 159.64C194.944 161.736 188.835 165.827 184.275 171.396C179.715 176.964 176.908 183.76 176.21 190.923C175.512 198.087 176.954 205.296 180.354 211.64C183.753 217.984 188.957 223.178 195.309 226.564C201.66 229.95 208.872 231.376 216.034 230.663C223.196 229.95 229.986 227.129 235.545 222.557C241.104 217.985 245.182 211.867 247.263 204.977C249.345 198.088 249.337 190.735 247.24 183.85C244.428 174.618 238.064 166.881 229.549 162.341C221.033 157.801 211.062 156.829 201.83 159.64ZM203.09 163.77C209.161 161.919 215.644 161.91 221.72 163.744C227.796 165.578 233.191 169.174 237.223 174.075C241.255 178.977 243.742 184.964 244.37 191.28C244.998 197.595 243.739 203.955 240.752 209.555C237.764 215.155 233.183 219.742 227.587 222.738C221.992 225.733 215.634 227.001 209.317 226.382C203.001 225.762 197.01 223.283 192.103 219.258C187.196 215.233 183.593 209.843 181.75 203.77C179.282 195.636 180.143 186.855 184.144 179.355C188.145 171.855 194.959 166.25 203.09 163.77Z" fill="white"/>
<path d="M200.87 156.48C193.984 158.577 187.875 162.669 183.315 168.238C178.755 173.807 175.949 180.603 175.252 187.767C174.555 194.931 175.998 202.14 179.399 208.484C182.799 214.828 188.005 220.021 194.357 223.406C200.709 226.791 207.922 228.216 215.084 227.502C222.246 226.787 229.036 223.965 234.593 219.391C240.151 214.818 244.228 208.699 246.308 201.808C248.388 194.918 248.378 187.565 246.28 180.68C243.466 171.45 237.101 163.715 228.586 159.177C220.07 154.639 210.1 153.669 200.87 156.48ZM202.12 160.6C208.19 158.747 214.674 158.736 220.75 160.569C226.827 162.402 232.223 165.996 236.257 170.896C240.29 175.797 242.779 181.784 243.408 188.1C244.038 194.416 242.78 200.776 239.793 206.377C236.807 211.977 232.226 216.566 226.631 219.562C221.036 222.559 214.677 223.828 208.361 223.209C202.044 222.591 196.052 220.113 191.145 216.088C186.237 212.063 182.633 206.673 180.79 200.6C178.321 192.467 179.18 183.687 183.18 176.187C187.179 168.688 193.991 163.082 202.12 160.6Z" fill="#263238"/>
<path opacity="0.3" d="M200.87 156.48C193.984 158.577 187.875 162.669 183.315 168.238C178.755 173.807 175.949 180.603 175.252 187.767C174.555 194.931 175.998 202.14 179.399 208.484C182.799 214.828 188.005 220.021 194.357 223.406C200.709 226.791 207.922 228.216 215.084 227.502C222.246 226.787 229.036 223.965 234.593 219.391C240.151 214.818 244.228 208.699 246.308 201.808C248.388 194.918 248.378 187.565 246.28 180.68C243.466 171.45 237.101 163.715 228.586 159.177C220.07 154.639 210.1 153.669 200.87 156.48ZM202.12 160.6C208.19 158.747 214.674 158.736 220.75 160.569C226.827 162.402 232.223 165.996 236.257 170.896C240.29 175.797 242.779 181.784 243.408 188.1C244.038 194.416 242.78 200.776 239.793 206.377C236.807 211.977 232.226 216.566 226.631 219.562C221.036 222.559 214.677 223.828 208.361 223.209C202.044 222.591 196.052 220.113 191.145 216.088C186.237 212.063 182.633 206.673 180.79 200.6C178.321 192.467 179.18 183.687 183.18 176.187C187.179 168.688 193.991 163.082 202.12 160.6Z" fill="white"/>
<path d="M103.4 225.94C103.961 227.785 105.232 229.331 106.933 230.238C108.634 231.146 110.625 231.341 112.47 230.78L164.74 214.86C165.041 214.768 165.321 214.617 165.563 214.415C165.806 214.214 166.006 213.967 166.152 213.688C166.298 213.409 166.387 213.104 166.414 212.79C166.441 212.476 166.406 212.16 166.31 211.86L163.45 202.48C163.267 201.88 162.854 201.377 162.301 201.08C161.749 200.784 161.101 200.719 160.5 200.9L108.23 216.82C107.313 217.1 106.46 217.558 105.72 218.168C104.98 218.778 104.369 219.529 103.92 220.376C103.471 221.224 103.194 222.152 103.105 223.106C103.016 224.061 103.116 225.024 103.4 225.94Z" fill="#263238"/>
<path opacity="0.3" d="M103.4 225.94C103.961 227.785 105.232 229.331 106.933 230.238C108.634 231.146 110.625 231.341 112.47 230.78L164.74 214.86C165.041 214.768 165.321 214.617 165.563 214.415C165.806 214.214 166.006 213.967 166.152 213.688C166.298 213.409 166.387 213.104 166.414 212.79C166.441 212.476 166.406 212.16 166.31 211.86L163.45 202.48C163.267 201.88 162.854 201.377 162.301 201.08C161.749 200.784 161.101 200.719 160.5 200.9L108.23 216.82C107.313 217.1 106.46 217.558 105.72 218.168C104.98 218.778 104.369 219.529 103.92 220.376C103.471 221.224 103.194 222.152 103.105 223.106C103.016 224.061 103.116 225.024 103.4 225.94Z" fill="white"/>
<path opacity="0.3" d="M103.14 224.72C103.182 225.135 103.269 225.544 103.4 225.94C103.677 226.853 104.132 227.703 104.739 228.44C105.345 229.177 106.091 229.787 106.933 230.236C107.776 230.684 108.698 230.962 109.648 231.054C110.598 231.146 111.557 231.049 112.47 230.77L164.74 214.85C165.042 214.76 165.324 214.61 165.568 214.41C165.811 214.209 166.012 213.962 166.159 213.682C166.305 213.402 166.394 213.096 166.42 212.781C166.446 212.467 166.408 212.15 166.31 211.85L165.59 209.48C165.687 209.781 165.723 210.098 165.696 210.412C165.668 210.727 165.578 211.033 165.431 211.313C165.284 211.592 165.082 211.839 164.838 212.04C164.594 212.24 164.312 212.39 164.01 212.48L111.75 228.4C110.111 228.901 108.348 228.807 106.772 228.134C105.196 227.46 103.91 226.251 103.14 224.72Z" fill="black"/>
<path opacity="0.3" d="M108.68 220.59C108.278 220.793 107.943 221.106 107.714 221.493C107.485 221.881 107.371 222.325 107.386 222.775C107.401 223.224 107.544 223.66 107.799 224.031C108.053 224.402 108.408 224.692 108.822 224.868C109.236 225.044 109.692 225.098 110.136 225.023C110.579 224.949 110.992 224.749 111.326 224.448C111.66 224.146 111.901 223.756 112.02 223.322C112.14 222.889 112.132 222.43 112 222C111.742 221.376 111.25 220.879 110.629 220.615C110.008 220.351 109.307 220.342 108.68 220.59Z" fill="black"/>
<path opacity="0.4" d="M222.27 171.92C219.07 174.1 218.8 179.25 221.65 183.43C224.5 187.61 229.39 189.24 232.59 187.06C235.79 184.88 236.06 179.73 233.21 175.55C230.36 171.37 225.46 169.75 222.27 171.92Z" fill="white"/>
<path opacity="0.4" d="M217.25 184.78C216.854 184.916 216.511 185.173 216.269 185.515C216.027 185.856 215.898 186.265 215.9 186.683C215.903 187.102 216.037 187.509 216.283 187.848C216.529 188.186 216.875 188.439 217.273 188.57C217.67 188.702 218.099 188.705 218.498 188.58C218.898 188.455 219.248 188.207 219.499 187.873C219.751 187.538 219.891 187.133 219.9 186.714C219.909 186.296 219.786 185.885 219.55 185.54C219.338 185.141 218.981 184.839 218.552 184.698C218.124 184.556 217.657 184.586 217.25 184.78Z" fill="white"/>
<path d="M117.41 170.08C116.736 170.58 116.115 171.15 115.56 171.78C114.22 173.37 113.66 175.37 115.46 178.03C115.46 178.03 115.99 179.89 112.19 180.74C109.75 172 106.71 170 106.71 170C108.53 169.9 110.41 168.27 112.07 166.24C113.106 164.95 114.042 163.582 114.87 162.15C115.27 161.48 115.62 160.84 115.87 160.26L116.18 162.26L117.41 170.08Z" fill="#EBB376"/>
<path opacity="0.2" d="M117.41 170.08C116.735 170.58 116.115 171.15 115.56 171.78C113.913 170.274 112.707 168.349 112.07 166.21C113.105 164.92 114.041 163.552 114.87 162.12C115.32 162.12 115.77 162.2 116.23 162.26L117.41 170.08Z" fill="black"/>
<path d="M119.17 146.39C119.17 146.39 124.08 140.74 118.17 136C112.26 131.26 100.68 133.4 98.5398 144.1C96.3998 154.8 99.3498 159.32 99.3498 159.32C99.3498 159.32 99.3498 152.51 101.35 150.52C101.035 152.246 101.035 154.014 101.35 155.74C101.94 157.74 101.35 156.46 101.35 156.46C101.35 156.46 103.16 147.92 111.88 150.37C120.6 152.82 119.17 146.39 119.17 146.39Z" fill="#263238"/>
<path d="M123.94 147.25C130.41 149.25 131.44 153.33 129.88 160.14C127.93 168.66 124.27 174.02 116.72 169.77C106.47 164 113.19 144 123.94 147.25Z" fill="#EBB376"/>
<path d="M125.8 158.5C126.022 159.626 126.381 160.721 126.87 161.76C126.598 161.968 126.275 162.098 125.934 162.135C125.594 162.172 125.25 162.115 124.94 161.97L125.8 158.5Z" fill="#D58745"/>
<path d="M122 156.77C121.85 157.3 121.44 157.65 121.08 157.55C120.72 157.45 120.56 156.94 120.71 156.4C120.86 155.86 121.27 155.52 121.63 155.62C121.99 155.72 122.15 156.23 122 156.77Z" fill="#263238"/>
<path d="M121.47 155.6L122.76 155.47C122.76 155.47 121.91 156.29 121.47 155.6Z" fill="#263238"/>
<path d="M128.69 158.52C128.54 159.05 128.13 159.4 127.77 159.3C127.41 159.2 127.25 158.69 127.4 158.15C127.55 157.61 127.96 157.27 128.31 157.37C128.66 157.47 128.84 158 128.69 158.52Z" fill="#263238"/>
<path d="M128.16 157.35L129.45 157.22C129.45 157.22 128.6 158 128.16 157.35Z" fill="#263238"/>
<path d="M120.19 152.68C120.145 152.68 120.1 152.669 120.06 152.648C120.02 152.627 119.986 152.597 119.96 152.56C119.921 152.497 119.908 152.422 119.922 152.349C119.937 152.277 119.979 152.213 120.04 152.17C120.553 151.886 121.126 151.724 121.712 151.698C122.299 151.672 122.883 151.782 123.42 152.02C123.453 152.035 123.484 152.057 123.508 152.084C123.533 152.111 123.552 152.142 123.565 152.177C123.577 152.212 123.582 152.248 123.579 152.285C123.577 152.322 123.567 152.357 123.55 152.39C123.519 152.458 123.463 152.51 123.394 152.537C123.325 152.563 123.248 152.56 123.18 152.53C122.731 152.332 122.244 152.238 121.753 152.256C121.263 152.273 120.784 152.401 120.35 152.63C120.302 152.662 120.247 152.679 120.19 152.68Z" fill="#263238"/>
<path d="M130.5 155C130.459 155 130.418 154.989 130.382 154.97C130.345 154.951 130.314 154.924 130.29 154.89C130.041 154.535 129.714 154.242 129.335 154.032C128.955 153.822 128.533 153.702 128.1 153.68C128.026 153.68 127.954 153.651 127.902 153.598C127.849 153.545 127.82 153.474 127.82 153.4C127.82 153.326 127.849 153.255 127.902 153.202C127.954 153.15 128.026 153.12 128.1 153.12C128.621 153.135 129.132 153.272 129.592 153.518C130.052 153.765 130.448 154.114 130.75 154.54C130.776 154.565 130.797 154.595 130.811 154.629C130.826 154.662 130.833 154.699 130.833 154.735C130.833 154.771 130.826 154.808 130.811 154.841C130.797 154.875 130.776 154.905 130.75 154.93C130.719 154.964 130.679 154.989 130.635 155.002C130.591 155.014 130.544 155.014 130.5 155Z" fill="#263238"/>
<path d="M113.54 156C113.54 156 118.18 151.61 118.98 147.36C118.98 147.36 133.4 146.04 130.06 159.25C130.06 159.25 134.84 148.07 123.79 144.42C112.74 140.77 107.79 157.06 112.1 163.66C112.1 163.66 110.65 158.76 113.54 156Z" fill="#263238"/>
<path d="M123.44 164.89C122.584 164.901 121.753 164.604 121.097 164.053C120.442 163.503 120.006 162.735 119.87 161.89C119.864 161.854 119.866 161.817 119.875 161.781C119.884 161.746 119.901 161.712 119.923 161.683C119.946 161.654 119.974 161.63 120.006 161.612C120.038 161.595 120.073 161.584 120.11 161.58C120.183 161.571 120.256 161.592 120.314 161.637C120.372 161.682 120.41 161.747 120.42 161.82C120.528 162.535 120.892 163.187 121.443 163.656C121.994 164.125 122.696 164.378 123.42 164.37C123.494 164.37 123.565 164.399 123.618 164.452C123.67 164.505 123.7 164.576 123.7 164.65C123.7 164.724 123.67 164.795 123.618 164.848C123.565 164.901 123.494 164.93 123.42 164.93L123.44 164.89Z" fill="#263238"/>
<path d="M112.42 154.71C112.409 154.751 112.413 154.795 112.432 154.833C112.45 154.872 112.481 154.902 112.52 154.92L119.11 156.45C119.013 157.071 119.123 157.708 119.423 158.26C119.723 158.813 120.196 159.252 120.77 159.51C121.528 159.884 122.396 159.968 123.212 159.747C124.027 159.526 124.734 159.015 125.2 158.31C125.276 158.172 125.339 158.029 125.39 157.88C125.507 157.783 125.643 157.71 125.789 157.667C125.935 157.624 126.089 157.612 126.24 157.63C126.323 157.664 126.398 157.716 126.457 157.784C126.516 157.852 126.558 157.933 126.58 158.02C126.499 158.633 126.618 159.256 126.919 159.796C127.22 160.336 127.686 160.765 128.25 161.02C129.006 161.395 129.873 161.48 130.688 161.259C131.502 161.038 132.208 160.526 132.67 159.82C132.871 159.476 132.996 159.093 133.038 158.697C133.08 158.301 133.037 157.901 132.912 157.522C132.787 157.144 132.583 156.797 132.314 156.503C132.045 156.21 131.716 155.977 131.35 155.82C130.593 155.444 129.724 155.359 128.907 155.58C128.091 155.801 127.384 156.313 126.92 157.02C126.843 157.158 126.776 157.302 126.72 157.45C126.634 157.348 126.519 157.274 126.39 157.24C126.103 157.159 125.797 157.188 125.53 157.32C125.616 156.708 125.501 156.084 125.202 155.542C124.902 155.001 124.435 154.572 123.87 154.32C123.114 153.943 122.246 153.856 121.429 154.075C120.613 154.295 119.906 154.805 119.44 155.51C119.34 155.692 119.256 155.883 119.19 156.08L112.63 154.56C112.583 154.556 112.536 154.569 112.498 154.597C112.459 154.624 112.432 154.664 112.42 154.71ZM127.33 157.26C127.739 156.649 128.358 156.21 129.07 156.026C129.781 155.842 130.536 155.925 131.19 156.26C131.51 156.396 131.798 156.598 132.034 156.854C132.27 157.11 132.449 157.413 132.559 157.743C132.668 158.073 132.707 158.423 132.671 158.769C132.635 159.115 132.525 159.449 132.35 159.75C131.948 160.369 131.333 160.819 130.621 161.012C129.908 161.206 129.15 161.13 128.49 160.8C128.163 160.665 127.868 160.461 127.627 160.202C127.386 159.942 127.205 159.634 127.094 159.297C126.984 158.961 126.948 158.604 126.989 158.253C127.029 157.901 127.146 157.562 127.33 157.26ZM119.85 155.71C120.252 155.091 120.867 154.641 121.579 154.448C122.292 154.254 123.05 154.33 123.71 154.66C124.03 154.796 124.318 154.998 124.554 155.254C124.79 155.51 124.969 155.813 125.079 156.143C125.188 156.473 125.227 156.823 125.191 157.169C125.155 157.515 125.045 157.849 124.87 158.15C124.461 158.761 123.842 159.2 123.13 159.384C122.419 159.568 121.664 159.485 121.01 159.15C120.697 159.013 120.415 158.813 120.184 158.561C119.953 158.309 119.777 158.011 119.668 157.687C119.558 157.363 119.518 157.02 119.55 156.679C119.581 156.339 119.683 156.009 119.85 155.71Z" fill="#263238"/>
<g opacity="0.3">
<path d="M112.42 154.71C112.409 154.751 112.413 154.795 112.432 154.833C112.45 154.872 112.481 154.902 112.52 154.92L119.11 156.45C119.013 157.071 119.123 157.708 119.423 158.26C119.723 158.813 120.196 159.252 120.77 159.51C121.528 159.884 122.396 159.968 123.212 159.747C124.027 159.526 124.734 159.015 125.2 158.31C125.276 158.172 125.339 158.029 125.39 157.88C125.507 157.783 125.643 157.71 125.789 157.667C125.935 157.624 126.089 157.612 126.24 157.63C126.323 157.664 126.398 157.716 126.457 157.784C126.516 157.852 126.558 157.933 126.58 158.02C126.499 158.633 126.618 159.256 126.919 159.796C127.22 160.336 127.686 160.765 128.25 161.02C129.006 161.395 129.873 161.48 130.688 161.259C131.502 161.038 132.208 160.526 132.67 159.82C132.871 159.476 132.996 159.093 133.038 158.697C133.08 158.301 133.037 157.901 132.912 157.522C132.787 157.144 132.583 156.797 132.314 156.503C132.045 156.21 131.716 155.977 131.35 155.82C130.593 155.444 129.724 155.359 128.907 155.58C128.091 155.801 127.384 156.313 126.92 157.02C126.843 157.158 126.776 157.302 126.72 157.45C126.634 157.348 126.519 157.274 126.39 157.24C126.103 157.159 125.797 157.188 125.53 157.32C125.616 156.708 125.501 156.084 125.202 155.542C124.902 155.001 124.435 154.572 123.87 154.32C123.114 153.943 122.246 153.856 121.429 154.075C120.613 154.295 119.906 154.805 119.44 155.51C119.34 155.692 119.256 155.883 119.19 156.08L112.63 154.56C112.583 154.556 112.536 154.569 112.498 154.597C112.459 154.624 112.432 154.664 112.42 154.71ZM127.33 157.26C127.739 156.649 128.358 156.21 129.07 156.026C129.781 155.842 130.536 155.925 131.19 156.26C131.51 156.396 131.798 156.598 132.034 156.854C132.27 157.11 132.449 157.413 132.559 157.743C132.668 158.073 132.707 158.423 132.671 158.769C132.635 159.115 132.525 159.449 132.35 159.75C131.948 160.369 131.333 160.819 130.621 161.012C129.908 161.206 129.15 161.13 128.49 160.8C128.163 160.665 127.868 160.461 127.627 160.202C127.386 159.942 127.205 159.634 127.094 159.297C126.984 158.961 126.948 158.604 126.989 158.253C127.029 157.901 127.146 157.562 127.33 157.26ZM119.85 155.71C120.252 155.091 120.867 154.641 121.579 154.448C122.292 154.254 123.05 154.33 123.71 154.66C124.03 154.796 124.318 154.998 124.554 155.254C124.79 155.51 124.969 155.813 125.079 156.143C125.188 156.473 125.227 156.823 125.191 157.169C125.155 157.515 125.045 157.849 124.87 158.15C124.461 158.761 123.842 159.2 123.13 159.384C122.419 159.568 121.664 159.485 121.01 159.15C120.697 159.013 120.415 158.813 120.184 158.561C119.953 158.309 119.777 158.011 119.668 157.687C119.558 157.363 119.518 157.02 119.55 156.679C119.581 156.339 119.683 156.009 119.85 155.71Z" fill="white"/>
</g>
<path d="M114.18 157.69C114.335 156.923 114.185 156.126 113.761 155.468C113.337 154.811 112.673 154.345 111.91 154.17C109.84 153.77 107.63 157.6 112.31 160.11C113 160.47 113.6 159.89 114.18 157.69Z" fill="#EBB376"/>
<path opacity="0.2" d="M93 179.08C93 179.08 90.48 193.24 99 200.57C107.52 207.9 107.46 186.63 105.5 179.64C104 174.29 93 179.08 93 179.08Z" fill="black"/>
<path d="M125 226.5L125.06 224.55C125.072 224.187 124.996 223.827 124.839 223.5C124.683 223.173 124.45 222.888 124.16 222.67L121.43 220.59C120.891 220.181 120.262 219.907 119.596 219.79C118.93 219.674 118.245 219.718 117.6 219.92L116.78 220.17C116.46 223.4 118.5 227.17 118.5 227.17L118.96 228.3C119.048 228.534 119.182 228.749 119.354 228.931C119.526 229.113 119.732 229.259 119.961 229.362C120.19 229.464 120.436 229.52 120.686 229.526C120.937 229.533 121.186 229.49 121.42 229.4L123.67 228.51C124.064 228.343 124.401 228.063 124.638 227.706C124.874 227.348 125 226.929 125 226.5Z" fill="#EBB376"/>
<path d="M102.43 179C103.87 187.62 105.01 196.28 106.04 205L105.04 203C107.66 205.767 110.24 208.57 112.78 211.41C114.99 213.93 118.16 217.52 120.22 220.11C120.488 220.492 120.613 220.956 120.575 221.421C120.537 221.886 120.338 222.323 120.011 222.657C119.685 222.99 119.252 223.199 118.788 223.247C118.324 223.295 117.858 223.179 117.47 222.92C111.55 218.31 105.6 213.15 100.03 208.13C99.4752 207.599 99.1218 206.892 99.0298 206.13C97.3998 197.55 95.8798 188.94 94.6598 180.29C94.637 179.319 94.9683 178.373 95.5919 177.628C96.2155 176.884 97.0887 176.391 98.0486 176.243C99.0085 176.095 99.9895 176.301 100.809 176.823C101.628 177.345 102.229 178.147 102.5 179.08L102.43 179Z" fill="#E9B376"/>
<path d="M100.53 170.56C95.5296 171.11 91.4296 173.28 93.5996 188.75L105.85 188.12C105.85 188.12 106.44 169.9 100.53 170.56Z" fill="#263238"/>
<line x1="363" y1="77.5858" x2="374.314" y2="66.2721" stroke="white" stroke-width="2" stroke-linecap="round"/>
<line x1="1" y1="-1" x2="17" y2="-1" transform="matrix(-0.707107 -0.707107 -0.707107 0.707107 374.3 79)" stroke="white" stroke-width="2" stroke-linecap="round"/>
</svg>
