<svg width="421" height="383" viewBox="0 0 421 383" fill="none" xmlns="http://www.w3.org/2000/svg">
<path d="M411.69 353.184H378.57V353.434H411.69V353.184Z" fill="#EBEBEB"/>
<path d="M293.01 355.904H284.32V356.154H293.01V355.904Z" fill="#EBEBEB"/>
<path d="M377.57 343.904H358.38V344.154H377.57V343.904Z" fill="#EBEBEB"/>
<path d="M57.44 345.584H14.25V345.834H57.44V345.584Z" fill="#EBEBEB"/>
<path d="M72.6796 345.584H66.3496V345.834H72.6796V345.584Z" fill="#EBEBEB"/>
<path d="M186.94 349.804H93.2598V350.054H186.94V349.804Z" fill="#EBEBEB"/>
<path d="M198.79 292.494H5.7C4.18735 292.492 2.73756 291.889 1.66888 290.818C0.600213 289.748 -2.31973e-06 288.297 0 286.784V15.3543C0.013168 13.8503 0.619194 12.4123 1.68644 11.3525C2.75369 10.2927 4.19597 9.69685 5.7 9.69427H198.79C200.304 9.69427 201.757 10.2959 202.828 11.3667C203.898 12.4375 204.5 13.8899 204.5 15.4043V286.784C204.5 288.299 203.898 289.751 202.828 290.822C201.757 291.893 200.304 292.494 198.79 292.494ZM5.7 9.89428C4.25365 9.89692 2.86745 10.4733 1.84566 11.497C0.823874 12.5207 0.249998 13.9079 0.25 15.3543V286.784C0.249998 288.231 0.823874 289.618 1.84566 290.642C2.86745 291.665 4.25365 292.242 5.7 292.244H198.79C200.237 292.242 201.625 291.666 202.648 290.642C203.671 289.619 204.247 288.232 204.25 286.784V15.3543C204.247 13.907 203.671 12.5198 202.648 11.4964C201.625 10.473 200.237 9.89692 198.79 9.89428H5.7Z" fill="#EBEBEB"/>
<path d="M415.1 292.494H222C220.486 292.492 219.036 291.889 217.965 290.819C216.895 289.749 216.293 288.298 216.29 286.784V15.3543C216.306 13.8494 216.914 12.4114 217.983 11.3519C219.052 10.2924 220.495 9.69682 222 9.69427H415.1C416.602 9.69948 418.042 10.2965 419.107 11.356C420.172 12.4155 420.777 13.852 420.79 15.3543V286.784C420.79 288.295 420.191 289.745 419.125 290.815C418.058 291.885 416.611 292.489 415.1 292.494ZM222 9.89428C220.553 9.89692 219.166 10.473 218.142 11.4964C217.119 12.5198 216.543 13.907 216.54 15.3543V286.784C216.543 288.232 217.119 289.619 218.142 290.642C219.166 291.666 220.553 292.242 222 292.244H415.1C416.547 292.242 417.935 291.666 418.958 290.642C419.981 289.619 420.557 288.232 420.56 286.784V15.3543C420.557 13.907 419.981 12.5198 418.958 11.4964C417.935 10.473 416.547 9.89692 415.1 9.89428H222Z" fill="#EBEBEB"/>
<path d="M98.9504 45.5742H49.9004V105.554H98.9504V45.5742Z" fill="#F0F0F0"/>
<path d="M109.48 45.5742H53.0596V105.554H109.48V45.5742Z" fill="#F5F5F5"/>
<path d="M104.75 100.834V50.3043H57.78V100.834H104.75Z" fill="white"/>
<path d="M93.3701 88.5743V62.5443H69.1701V88.5743H93.3701Z" fill="#F5F5F5"/>
<path d="M181.71 73.4542H132.66V133.434H181.71V73.4542Z" fill="#F0F0F0"/>
<path d="M192.25 73.4542H135.83V133.434H192.25V73.4542Z" fill="#F5F5F5"/>
<path d="M187.52 128.714V78.1843H140.55V128.714H187.52Z" fill="white"/>
<path d="M176.14 106.774V100.104C176.14 94.7582 171.806 90.4243 166.46 90.4243H161.62C156.274 90.4243 151.94 94.7582 151.94 100.104V106.774C151.94 112.12 156.274 116.454 161.62 116.454H166.46C171.806 116.454 176.14 112.12 176.14 106.774Z" fill="#F5F5F5"/>
<path d="M406.18 286.174H378.99V337.094H406.18V286.174Z" fill="#E6E6E6"/>
<path d="M401.01 337.094H406.18V317.944H395.6L401.01 337.094Z" fill="#F0F0F0"/>
<path d="M251.05 286.174H223.86V337.094H251.05V286.174Z" fill="#E6E6E6"/>
<path d="M406.17 286.174H246.54V331.864H406.17V286.174Z" fill="#F0F0F0"/>
<path d="M251.71 337.094H246.54V317.944H257.12L251.71 337.094Z" fill="#F0F0F0"/>
<path d="M251.85 294.084V323.274H299.17V294.084H251.85Z" fill="#E6E6E6"/>
<path d="M280.19 304.164H270.79C266.72 304.164 262.79 300.064 260.04 292.824H290.9C288.15 300.064 284.26 304.164 280.19 304.164Z" fill="#F0F0F0"/>
<path d="M302.7 294.074V323.264H350.02V294.074H302.7Z" fill="#E6E6E6"/>
<path d="M331.52 304.164H322.16C318.09 304.164 314.16 300.064 311.41 292.824H342.27C339.47 300.064 335.59 304.164 331.52 304.164Z" fill="#F0F0F0"/>
<path d="M353.54 294.084V323.274H400.86V294.084H353.54Z" fill="#E6E6E6"/>
<path d="M382.37 304.164H373.01C368.94 304.164 365.01 300.064 362.26 292.824H393.12C390.32 300.064 386.43 304.164 382.37 304.164Z" fill="#F0F0F0"/>
<path d="M398.24 38.8743H242.62V171.334H398.24V38.8743Z" fill="#E6E6E6"/>
<path d="M403.33 38.8743H245V171.334H403.33V38.8743Z" fill="#F0F0F0"/>
<path d="M398.24 171.334H242.62V180.774H398.24V171.334Z" fill="#E6E6E6"/>
<path d="M411.79 171.334H253.46V180.774H411.79V171.334Z" fill="#F0F0F0"/>
<path d="M396.21 164.224V45.9843L252.1 45.9843V164.224H396.21Z" fill="#FAFAFA"/>
<path d="M343.85 164.224L355.23 45.9943H374.94L363.55 164.224H343.85Z" fill="white"/>
<path d="M255.4 124.144C255.256 124.144 255.118 124.088 255.015 123.987C254.912 123.886 254.853 123.748 254.85 123.604V50.6043C254.853 50.4602 254.912 50.3229 255.015 50.2219C255.118 50.1209 255.256 50.0643 255.4 50.0643C255.543 50.0643 255.681 50.1212 255.782 50.2225C255.883 50.3238 255.94 50.4611 255.94 50.6043V123.604C255.94 123.748 255.883 123.885 255.782 123.986C255.681 124.087 255.543 124.144 255.4 124.144Z" fill="#F0F0F0"/>
<path d="M367.78 164.224L379.17 45.9943H386.85L375.46 164.224H367.78Z" fill="white"/>
<path d="M396.22 164.224V45.9843H395.32V164.224H396.22Z" fill="#E6E6E6"/>
<path opacity="0.5" d="M405.01 58.8843H249.38L248.73 48.7543H404.35L405.01 58.8843Z" fill="#E0E0E0"/>
<path opacity="0.5" d="M405.01 75.5343H249.38L248.73 65.4043H404.35L405.01 75.5343Z" fill="#E0E0E0"/>
<path opacity="0.5" d="M405.01 92.1843H249.38L248.73 82.0543H404.35L405.01 92.1843Z" fill="#E0E0E0"/>
<path opacity="0.5" d="M405.01 108.834H249.38L248.73 98.7042H404.35L405.01 108.834Z" fill="#E0E0E0"/>
<path opacity="0.5" d="M405.01 125.484H249.38L248.73 115.354H404.35L405.01 125.484Z" fill="#E0E0E0"/>
<path opacity="0.5" d="M405.01 142.134H249.38L248.73 132.004H404.35L405.01 142.134Z" fill="#E0E0E0"/>
<path d="M204.38 215.844H156.96V337.094H204.38V215.844Z" fill="#E6E6E6"/>
<path d="M199.61 337.094H204.38V320.584H194.61L199.61 337.094Z" fill="#F0F0F0"/>
<path d="M130.06 215.844H82.6396V337.094H130.06V215.844Z" fill="#E6E6E6"/>
<path d="M204.38 215.844H125.9V326.964H204.38V215.844Z" fill="#F0F0F0"/>
<path d="M200.68 220.764H129.6V251.234H200.68V220.764Z" fill="#E6E6E6"/>
<path d="M172.1 230.234H161.38C156.73 230.234 152.28 226.474 149.08 219.844H184.4C181.2 226.474 176.79 230.234 172.1 230.234Z" fill="#F0F0F0"/>
<path d="M130.67 337.094H125.9V320.584H135.67L130.67 337.094Z" fill="#F0F0F0"/>
<path d="M200.68 256.164H129.6V286.634H200.68V256.164Z" fill="#E6E6E6"/>
<path d="M172.1 265.634H161.38C156.73 265.634 152.28 261.874 149.08 255.234H184.4C181.2 261.874 176.79 265.634 172.1 265.634Z" fill="#F0F0F0"/>
<path d="M200.68 291.564H129.6V322.034H200.68V291.564Z" fill="#E6E6E6"/>
<path d="M172.1 301.034H161.38C156.73 301.034 152.28 297.274 149.08 290.634H184.4C181.2 297.274 176.79 301.034 172.1 301.034Z" fill="#F0F0F0"/>
<path d="M261.76 286.054H289.8C293.285 286.054 296.11 283.229 296.11 279.744V233.374C296.11 229.889 293.285 227.064 289.8 227.064H261.76C258.275 227.064 255.45 229.889 255.45 233.374V279.744C255.45 283.229 258.275 286.054 261.76 286.054Z" fill="#F5F5F5"/>
<path d="M360.97 253.234C360.97 253.234 359.97 286.054 321.53 286.054C283.09 286.054 282.09 253.234 282.09 253.234H360.97Z" fill="#F0F0F0"/>
<path d="M52.7903 310.774H54.7903C54.7903 302.424 54.7903 299.624 55.0003 251.064C55.3503 163.064 56.0003 157.694 56.0003 157.694L51.3303 198.324C48.4003 243.314 52.2203 270.134 52.7903 310.774Z" fill="#F0F0F0"/>
<path d="M52.3901 337.094C46.2964 337.098 40.3847 335.017 35.637 331.197C30.8892 327.377 27.591 322.048 26.2901 316.094C25.663 312.887 24.7528 309.741 23.5701 306.694L23.3701 306.204H81.3701L81.1701 306.694C79.9875 309.741 79.0772 312.887 78.4501 316.094C77.1507 322.041 73.8584 327.365 69.1188 331.184C64.3793 335.004 58.477 337.089 52.3901 337.094Z" fill="#FAFAFA"/>
<path d="M85.1602 309.114H19.6102L17.7402 294.924H87.0402L85.1602 309.114Z" fill="#F0F0F0"/>
<path d="M51.1497 231.894C62.5997 211.944 32.9097 204.804 23.2797 187.024C11.7197 201.064 37.7297 255.264 51.1497 231.894Z" fill="#F0F0F0"/>
<path d="M53.3597 215.504C48.9397 205.454 70.1997 193.254 74.7897 176.914C83.2697 186.344 66.4297 245.274 53.3597 215.504Z" fill="#F0F0F0"/>
<path d="M53.1901 245.824C56.7901 233.154 77.3701 242.294 87.8701 218.494C99.0401 252.114 43.2101 281.024 53.1901 245.824Z" fill="#F0F0F0"/>
<path d="M54.1 260.964C53.86 248.964 40.78 259.604 17.1 238.154C12.79 260.294 55.01 307.474 54.1 260.964Z" fill="#F0F0F0"/>
<path d="M211.79 382.254C318.873 382.254 405.68 377.186 405.68 370.934C405.68 364.682 318.873 359.614 211.79 359.614C104.708 359.614 17.9004 364.682 17.9004 370.934C17.9004 377.186 104.708 382.254 211.79 382.254Z" fill="#F5F5F5"/>
<path d="M233.019 87.823C235.784 69.4734 223.151 52.3564 204.801 49.5911C186.452 46.8258 169.335 59.4594 166.569 77.809C163.804 96.1586 176.438 113.276 194.787 116.041C213.137 118.806 230.254 106.173 233.019 87.823Z" fill="#FF6B6B"/>
<path d="M225.94 92.0943C223.48 99.0257 218.368 104.696 211.727 107.858C205.086 111.02 197.462 111.414 190.53 108.954C183.599 106.494 177.928 101.382 174.767 94.7411C171.605 88.1004 171.21 80.4757 173.67 73.5443C176.13 66.6128 181.243 60.9425 187.883 57.7806C191.172 56.215 194.736 55.3124 198.373 55.1243C202.01 54.9362 205.648 55.4663 209.08 56.6843C212.512 57.9023 215.671 59.7844 218.376 62.2231C221.08 64.6618 223.278 67.6093 224.844 70.8975C226.409 74.1856 227.312 77.7499 227.5 81.3868C227.688 85.0238 227.158 88.6622 225.94 92.0943Z" fill="white"/>
<path opacity="0.4" d="M218.36 103.424C214.65 106.78 210.101 109.069 205.195 110.049C200.289 111.029 195.21 110.664 190.495 108.992C185.78 107.32 181.605 104.404 178.412 100.553C175.22 96.7011 173.128 92.0576 172.36 87.1142C180.781 84.9759 189.647 85.3843 197.836 88.2877C206.024 91.1911 213.167 96.4589 218.36 103.424Z" fill="#FF6B6B"/>
<path opacity="0.4" d="M214.62 78.0143C213.801 80.315 212.319 82.3214 210.361 83.7799C208.402 85.2384 206.055 86.0836 203.616 86.2086C201.178 86.3336 198.756 85.7327 196.659 84.4821C194.562 83.2314 192.882 81.387 191.833 79.182C190.783 76.977 190.411 74.5104 190.763 72.0939C191.115 69.6775 192.176 67.4197 193.811 65.6059C195.446 63.792 197.582 62.5036 199.949 61.9035C202.316 61.3034 204.808 61.4185 207.11 62.2343C208.64 62.7753 210.049 63.6131 211.256 64.6996C212.462 65.7861 213.442 67.0999 214.14 68.5658C214.837 70.0317 215.239 71.6208 215.321 73.2422C215.404 74.8635 215.165 76.4852 214.62 78.0143Z" fill="#FF6B6B"/>
<path d="M76.0552 118.555C91.7124 118.508 104.367 105.778 104.321 90.1206C104.275 74.4634 91.5442 61.8084 75.887 61.8548C60.2298 61.9013 47.5748 74.6316 47.6212 90.2888C47.6677 105.946 60.398 118.601 76.0552 118.555Z" fill="#FF6B6B"/>
<path opacity="0.6" d="M76.0552 118.555C91.7124 118.508 104.367 105.778 104.321 90.1206C104.275 74.4634 91.5442 61.8084 75.887 61.8548C60.2298 61.9013 47.5748 74.6316 47.6212 90.2888C47.6677 105.946 60.398 118.601 76.0552 118.555Z" fill="#FAFAFA"/>
<path d="M97.9002 82.0643C100.058 87.8818 99.8159 94.3181 97.2279 99.9573C94.6399 105.597 89.9178 109.977 84.1002 112.134C78.2827 114.292 71.8464 114.05 66.2072 111.462C60.5679 108.874 56.1878 104.152 54.0302 98.3342C51.8727 92.5167 52.1145 86.0804 54.7025 80.4412C57.2905 74.802 62.0127 70.4218 67.8302 68.2642C73.6478 66.1067 80.0841 66.3485 85.7233 68.9366C91.3625 71.5246 95.7427 76.2467 97.9002 82.0643Z" fill="white"/>
<path d="M99.1296 93.4943C98.5346 97.6654 96.8245 101.598 94.1798 104.878C91.535 108.158 88.0538 110.663 84.1036 112.129C80.1534 113.594 75.8808 113.966 71.7368 113.205C67.5928 112.444 63.7311 110.578 60.5596 107.804C64.856 101.876 70.8123 97.3528 77.6767 94.806C84.5411 92.2592 92.006 91.8028 99.1296 93.4943Z" fill="#263238"/>
<path d="M82.9603 79.0742C83.6757 81.0065 83.8022 83.1074 83.3238 85.1115C82.8454 87.1156 81.7836 88.9329 80.2726 90.3337C78.7616 91.7345 76.8692 92.6558 74.8347 92.9813C72.8001 93.3068 70.7148 93.0218 68.8421 92.1624C66.9695 91.3029 65.3938 89.9076 64.314 88.1528C63.2342 86.398 62.6989 84.3624 62.7758 82.3034C62.8527 80.2445 63.5382 78.2545 64.7458 76.5851C65.9534 74.9156 67.6288 73.6417 69.5603 72.9242C70.8438 72.4461 72.209 72.2259 73.5778 72.2763C74.9465 72.3268 76.2919 72.6468 77.5367 73.2182C78.7815 73.7895 79.9014 74.6008 80.8321 75.6057C81.7627 76.6106 82.486 77.7893 82.9603 79.0742Z" fill="#263238"/>
<path d="M151.868 68.6247C164.501 55.9912 164.501 35.5083 151.868 22.8748C139.234 10.2414 118.752 10.2414 106.118 22.8748C93.4846 35.5083 93.4846 55.9912 106.118 68.6247C118.752 81.2581 139.234 81.2581 151.868 68.6247Z" fill="#263238"/>
<path d="M155.44 42.1543C156.153 47.3892 155.297 52.7181 152.98 57.4663C150.663 62.2146 146.99 66.1687 142.425 68.8283C137.86 71.4879 132.608 72.7333 127.335 72.407C122.062 72.0806 117.004 70.1972 112.802 66.995C108.599 63.7929 105.441 59.4159 103.728 54.4183C102.014 49.4206 101.822 44.0268 103.175 38.9198C104.528 33.8127 107.366 29.2218 111.329 25.7283C115.293 22.2347 120.203 19.9956 125.44 19.2943C128.914 18.805 132.45 19.0097 135.844 19.8966C139.238 20.7835 142.422 22.335 145.212 24.4612C148.003 26.5873 150.343 29.2459 152.099 32.283C153.854 35.3201 154.99 38.6752 155.44 42.1543Z" fill="white"/>
<path d="M153.95 55.1943C152.25 59.6914 149.365 63.6455 145.603 66.6388C141.84 69.6322 137.339 71.5535 132.575 72.1999C127.81 72.8463 122.96 72.1937 118.536 70.311C114.111 68.4284 110.278 65.3856 107.44 61.5043C113.703 55.9768 121.462 52.4277 129.74 51.3047C138.017 50.1817 146.441 51.5352 153.95 55.1943Z" fill="#FF6B6B"/>
<path d="M137.214 43.8942C141.191 38.6685 140.178 31.2086 134.952 27.232C129.727 23.2554 122.267 24.268 118.29 29.4937C114.314 34.7194 115.326 42.1793 120.552 46.1559C125.777 50.1325 133.237 49.1199 137.214 43.8942Z" fill="#FF6B6B"/>
<path d="M169.82 362.094H118.86V370.934H169.82V362.094Z" fill="#FF6B6B"/>
<path opacity="0.2" d="M123.42 362.094H121.38V370.934H123.42V362.094Z" fill="black"/>
<path opacity="0.2" d="M128.9 362.094H126.86V370.934H128.9V362.094Z" fill="black"/>
<path opacity="0.2" d="M134.39 362.094H132.35V370.934H134.39V362.094Z" fill="black"/>
<path opacity="0.2" d="M139.88 362.094H137.84V370.934H139.88V362.094Z" fill="black"/>
<path opacity="0.2" d="M145.36 362.094H143.32V370.934H145.36V362.094Z" fill="black"/>
<path opacity="0.2" d="M150.85 362.094H148.81V370.934H150.85V362.094Z" fill="black"/>
<path opacity="0.2" d="M156.33 362.094H154.29V370.934H156.33V362.094Z" fill="black"/>
<path opacity="0.2" d="M161.82 362.094H159.78V370.934H161.82V362.094Z" fill="black"/>
<path opacity="0.2" d="M167.31 362.094H165.27V370.934H167.31V362.094Z" fill="black"/>
<path d="M168.02 353.254H117.06V362.094H168.02V353.254Z" fill="#FF6B6B"/>
<path opacity="0.2" d="M121.62 353.254H119.58V362.094H121.62V353.254Z" fill="black"/>
<path opacity="0.2" d="M127.1 353.254H125.06V362.094H127.1V353.254Z" fill="black"/>
<path opacity="0.2" d="M132.59 353.254H130.55V362.094H132.59V353.254Z" fill="black"/>
<path opacity="0.2" d="M138.08 353.254H136.04V362.094H138.08V353.254Z" fill="black"/>
<path opacity="0.2" d="M143.56 353.254H141.52V362.094H143.56V353.254Z" fill="black"/>
<path opacity="0.2" d="M149.05 353.254H147.01V362.094H149.05V353.254Z" fill="black"/>
<path opacity="0.2" d="M154.54 353.254H152.5V362.094H154.54V353.254Z" fill="black"/>
<path opacity="0.2" d="M160.02 353.254H157.98V362.094H160.02V353.254Z" fill="black"/>
<path opacity="0.2" d="M165.51 353.254H163.47V362.094H165.51V353.254Z" fill="black"/>
<path d="M169.45 344.414H118.49V353.254H169.45V344.414Z" fill="#FF6B6B"/>
<path opacity="0.2" d="M123.05 344.414H121.01V353.254H123.05V344.414Z" fill="black"/>
<path opacity="0.2" d="M128.54 344.414H126.5V353.254H128.54V344.414Z" fill="black"/>
<path opacity="0.2" d="M134.02 344.414H131.98V353.254H134.02V344.414Z" fill="black"/>
<path opacity="0.2" d="M139.51 344.414H137.47V353.254H139.51V344.414Z" fill="black"/>
<path opacity="0.2" d="M145 344.414H142.96V353.254H145V344.414Z" fill="black"/>
<path opacity="0.2" d="M150.48 344.414H148.44V353.254H150.48V344.414Z" fill="black"/>
<path opacity="0.2" d="M155.97 344.414H153.93V353.254H155.97V344.414Z" fill="black"/>
<path opacity="0.2" d="M161.45 344.414H159.41V353.254H161.45V344.414Z" fill="black"/>
<path opacity="0.2" d="M166.94 344.414H164.9V353.254H166.94V344.414Z" fill="black"/>
<path d="M147.281 339.587C161.106 336.398 169.728 322.605 166.539 308.78C163.35 294.955 149.557 286.333 135.732 289.522C121.907 292.711 113.285 306.504 116.474 320.329C119.663 334.154 133.456 342.776 147.281 339.587Z" fill="#FF6B6B"/>
<path opacity="0.2" d="M159.82 325.984C157.559 329.601 154.275 332.466 150.386 334.217C146.496 335.968 142.174 336.526 137.967 335.821C133.76 335.116 129.856 333.18 126.75 330.256C123.643 327.333 121.473 323.554 120.514 319.397C119.555 315.241 119.85 310.893 121.362 306.904C122.873 302.915 125.534 299.464 129.006 296.987C132.479 294.51 136.609 293.118 140.872 292.988C145.136 292.857 149.343 293.994 152.96 296.254C157.812 299.288 161.259 304.124 162.546 309.699C163.832 315.274 162.852 321.132 159.82 325.984Z" fill="black"/>
<path d="M146.629 336.079C158.037 333.447 165.153 322.065 162.521 310.656C159.889 299.247 148.507 292.132 137.098 294.764C125.689 297.396 118.574 308.778 121.206 320.187C123.838 331.595 135.22 338.711 146.629 336.079Z" fill="#FF6B6B"/>
<path opacity="0.4" d="M155.14 292.764C151.432 290.451 147.195 289.121 142.83 288.901C138.465 288.68 134.116 289.576 130.193 291.504C126.271 293.432 122.904 296.328 120.412 299.918C117.92 303.509 116.384 307.675 115.95 312.024H167.09C166.708 308.113 165.431 304.342 163.359 301.002C161.287 297.662 158.475 294.844 155.14 292.764Z" fill="black"/>
<path opacity="0.4" d="M141.74 340.694C156.1 340.694 167.74 329.278 167.74 315.194C167.74 301.111 156.1 289.694 141.74 289.694C127.381 289.694 115.74 301.111 115.74 315.194C115.74 329.278 127.381 340.694 141.74 340.694Z" fill="black"/>
<path d="M120.389 312.41C119.908 315.879 120.312 319.413 121.563 322.684C123.38 327.481 126.886 331.448 131.423 333.841C135.959 336.234 141.214 336.888 146.198 335.679C151.183 334.47 155.554 331.482 158.49 327.277C161.427 323.071 162.726 317.938 162.143 312.843C161.561 307.747 159.137 303.039 155.328 299.605C151.518 296.17 146.586 294.246 141.457 294.193C136.328 294.14 131.357 295.962 127.477 299.317C123.597 302.671 121.077 307.328 120.389 312.41Z" fill="#FF6B6B"/>
<path d="M124.24 327.694C125.3 329.992 128.598 332.198 130.944 333.728C133.29 335.257 136.096 336.24 139.067 336.57C142.038 336.901 145.062 336.568 147.821 335.606C150.58 334.645 156.74 330.194 155.24 330.694C155.24 330.194 145.999 326.465 140.838 325.891C135.676 325.316 128.922 325.823 124.24 327.694Z" fill="white"/>
<path opacity="0.2" d="M235.14 88.3643H48.6598C47.1072 88.3642 45.5842 88.7889 44.2556 89.5923C42.9271 90.3958 41.8436 91.5474 41.1226 92.9224C40.4017 94.2974 40.0706 95.8435 40.1653 97.3932C40.2599 98.9429 40.7768 100.437 41.6598 101.714L62.4798 131.784C63.2651 132.913 64.3118 133.836 65.5306 134.473C66.7495 135.111 68.1044 135.444 69.4798 135.444H214.32C215.696 135.445 217.051 135.113 218.27 134.476C219.489 133.838 220.536 132.915 221.32 131.784L242.14 101.694C243.017 100.417 243.53 98.9251 243.621 97.3785C243.713 95.8318 243.381 94.2895 242.661 92.9177C241.94 91.546 240.859 90.397 239.534 89.5945C238.208 88.7921 236.689 88.3667 235.14 88.3643Z" fill="#FF6B6B"/>
<path d="M236.19 125.314H47.6201L108.94 257.414H174.86L236.19 125.314Z" fill="#FF6B6B"/>
<path d="M68.784 176.87L67.877 177.291L74.1209 190.743L75.028 190.322L68.784 176.87Z" fill="#FF6B6B"/>
<path d="M76.8748 194.317L75.9678 194.739L78.8898 201.033L79.7968 200.612L76.8748 194.317Z" fill="#FF6B6B"/>
<path opacity="0.3" d="M236.19 125.314H47.6201L108.94 257.414H174.86L236.19 125.314Z" fill="black"/>
<path opacity="0.2" d="M102.66 125.314H66.9805L121.02 257.414H132.56L102.66 125.314Z" fill="black"/>
<path d="M242.04 99.9043H41.77C39.1356 99.9043 37 102.04 37 104.674V120.544C37 123.179 39.1356 125.314 41.77 125.314H242.04C244.674 125.314 246.81 123.179 246.81 120.544V104.674C246.81 102.04 244.674 99.9043 242.04 99.9043Z" fill="#FF6B6B"/>
<path d="M165.18 305.324H118.63C116.96 305.324 115.351 304.692 114.127 303.555C112.903 302.418 112.154 300.86 112.03 299.194L108.94 257.414H174.86L171.74 299.194C171.62 300.854 170.877 302.408 169.661 303.544C168.445 304.68 166.845 305.316 165.18 305.324Z" fill="#FF6B6B"/>
<path opacity="0.2" d="M165.18 305.324H118.63C116.96 305.324 115.351 304.692 114.127 303.555C112.903 302.418 112.154 300.86 112.03 299.194L108.94 257.414H174.86L171.74 299.194C171.62 300.854 170.877 302.408 169.661 303.544C168.445 304.68 166.845 305.316 165.18 305.324Z" fill="black"/>
<path d="M292.75 362.574H284.56L284.021 343.614H292.211L292.75 362.574Z" fill="#E79992"/>
<path opacity="0.2" d="M284.021 343.614L284.301 353.394H292.491L292.211 343.614H284.021Z" fill="black"/>
<path d="M356.05 332.814L348.88 336.764L337.44 321.414L344.61 317.474L356.05 332.814Z" fill="#E79992"/>
<path opacity="0.2" d="M344.62 317.474L337.44 321.424L343.34 329.324L350.52 325.384L344.62 317.474Z" fill="black"/>
<path d="M324.891 130.414C317.571 125.414 314.261 120.264 313.621 114.054C314.851 120.634 318.781 125.854 327.561 130.264C327.631 130.304 327.71 130.325 327.791 130.324C327.904 130.325 328.014 130.287 328.103 130.216C328.192 130.146 328.254 130.048 328.28 129.937C328.305 129.827 328.293 129.711 328.244 129.609C328.195 129.506 328.113 129.424 328.011 129.374C315.661 123.174 313.271 115.584 314.401 104.284C314.721 102.794 315.121 101.284 315.601 99.6443C319.601 85.9843 297.321 83.2443 290.351 86.0843C273.221 93.0843 278.481 112.534 283.351 119.864C288.221 127.194 271.931 132.114 281.031 153.084C290.131 174.054 320.401 173.534 329.031 162.634C337.661 151.734 337.151 138.864 324.891 130.414Z" fill="#263238"/>
<path d="M280.19 138.864C280.09 140.234 279.98 141.424 279.81 142.674C279.64 143.924 279.46 145.134 279.26 146.354C278.86 148.804 278.26 151.224 277.73 153.634C276.557 158.501 274.927 163.245 272.86 167.804L272.47 168.664C272.32 168.964 272.26 169.144 271.95 169.734C271.357 170.802 270.509 171.706 269.48 172.364C268.53 172.958 267.462 173.337 266.35 173.474C265.467 173.585 264.573 173.585 263.69 173.474C260.935 173.039 258.28 172.115 255.85 170.744C251.477 168.354 247.394 165.468 243.68 162.144L246.15 158.814C248.15 159.944 250.22 161.094 252.28 162.134C254.299 163.185 256.375 164.12 258.5 164.934C260.342 165.721 262.296 166.214 264.29 166.394C265.07 166.394 265.54 166.174 265.4 166.174C265.26 166.174 265.29 166.244 265.3 166.174L265.81 164.824C267.412 160.565 268.699 156.193 269.66 151.744C270.16 149.504 270.56 147.234 270.94 144.974C271.32 142.714 271.62 140.374 271.84 138.264L280.19 138.864Z" fill="#E79992"/>
<path d="M274.501 128.854C271.121 129.694 268.791 143.594 268.791 143.594L278.091 149.914C278.091 149.914 287.011 135.914 284.411 132.204C281.681 128.334 279.421 127.594 274.501 128.854Z" fill="#FF6B6B"/>
<path opacity="0.2" d="M274.501 128.854C271.121 129.694 268.791 143.594 268.791 143.594L278.091 149.914C278.091 149.914 287.011 135.914 284.411 132.204C281.681 128.334 279.421 127.594 274.501 128.854Z" fill="black"/>
<path opacity="0.2" d="M274.8 131.954L272.21 145.944L277.43 149.494L274.8 131.954Z" fill="black"/>
<path d="M247.53 159.374L242.53 151.534L239.71 159.364C239.71 159.364 243.18 163.364 246.49 162.534L247.53 159.374Z" fill="#E79992"/>
<path d="M237.19 148.594L233.86 154.724L239.7 159.364L242.52 151.534L237.19 148.594Z" fill="#E79992"/>
<path d="M347.33 335.794L354.65 330.224C354.773 330.127 354.928 330.078 355.085 330.087C355.241 330.097 355.389 330.163 355.5 330.274L360.75 335.424C360.876 335.559 360.973 335.718 361.033 335.892C361.094 336.066 361.118 336.251 361.103 336.435C361.088 336.618 361.034 336.797 360.946 336.959C360.858 337.121 360.736 337.262 360.59 337.374C358 339.274 356.66 340.064 353.44 342.514C351.44 344.024 348.73 346.434 345.99 348.514C343.25 350.594 341.06 348.004 341.99 346.894C346.25 341.894 345.91 339.784 346.53 337.024C346.644 336.533 346.928 336.098 347.33 335.794Z" fill="#263238"/>
<path d="M284.28 361.624H293.48C293.64 361.62 293.795 361.675 293.917 361.778C294.039 361.882 294.118 362.026 294.14 362.184L295.14 369.464C295.16 369.648 295.141 369.833 295.084 370.009C295.027 370.184 294.934 370.346 294.81 370.482C294.686 370.619 294.535 370.729 294.366 370.803C294.197 370.877 294.015 370.915 293.83 370.914C290.62 370.864 289.08 370.674 285.03 370.674C282.55 370.674 275.4 370.934 271.96 370.934C268.52 370.934 268.34 367.534 269.77 367.224C276.19 365.844 280.71 363.944 282.88 362.124C283.274 361.798 283.769 361.621 284.28 361.624Z" fill="#263238"/>
<path d="M274.5 128.854C274.5 128.854 270.6 130.224 278.41 178.264H311.66C311.1 164.734 311.09 156.384 317.55 128.614C312.895 127.65 308.176 127.028 303.43 126.754C298.407 126.394 293.364 126.394 288.34 126.754C281.85 127.344 274.5 128.854 274.5 128.854Z" fill="#FF6B6B"/>
<path opacity="0.2" d="M274.5 128.854C274.5 128.854 270.6 130.224 278.41 178.264H311.66C311.1 164.734 311.09 156.384 317.55 128.614C312.895 127.65 308.176 127.028 303.43 126.754C298.407 126.394 293.364 126.394 288.34 126.754C281.85 127.344 274.5 128.854 274.5 128.854Z" fill="black"/>
<path d="M303.43 126.754C298.407 126.394 293.364 126.394 288.34 126.754C286.52 126.914 284.64 127.154 282.88 127.404C282.1 130.324 282.26 134.404 285.23 139.744L286.95 142.814L290.22 141.504C292.64 140.504 304.89 135.354 308.82 128.974L309.82 127.324C307.86 127.074 305.67 126.864 303.43 126.754Z" fill="white"/>
<path d="M303.43 126.754C300.04 123.514 300.99 114.604 301.94 109.754L292.67 117.694C293.61 121.474 293.75 125.484 288.34 126.784L287.34 126.884C286.13 129.164 285.83 132.684 288.72 137.884C288.72 137.884 301.96 132.544 305.41 126.964C304.79 126.834 304.1 126.784 303.43 126.754Z" fill="#E79992"/>
<path opacity="0.2" d="M298.16 112.984L292.67 117.694C292.908 118.571 293.066 119.468 293.14 120.374C295.21 120.074 298.05 117.804 298.27 115.634C298.399 114.752 298.362 113.853 298.16 112.984Z" fill="black"/>
<path d="M308.06 101.994C305.63 109.754 304.77 113.084 299.8 116.144C292.32 120.754 283.32 116.074 283.38 107.754C283.43 100.264 287.38 88.8343 295.87 87.6043C297.738 87.3247 299.647 87.527 301.415 88.192C303.183 88.857 304.752 89.9626 305.973 91.4039C307.194 92.8453 308.027 94.5747 308.392 96.4281C308.757 98.2815 308.643 100.197 308.06 101.994Z" fill="#E79992"/>
<path d="M309.61 90.6944C306.95 88.2453 303.503 86.8268 299.89 86.6944C299.388 86.2489 298.765 85.9634 298.1 85.8743C294.33 85.1043 290.1 86.1244 288.17 88.5144C286.44 90.6944 292.33 91.9744 296.56 90.2444C297.17 96.9244 302.81 110.664 308.19 109.424C315.22 107.824 315.28 95.9444 309.61 90.6944Z" fill="#263238"/>
<path d="M278.411 178.264C278.411 178.264 271.951 241.334 272.491 266.264C273.051 292.264 282.561 351.454 282.561 351.454H293.631C293.631 351.454 291.881 293.744 292.861 268.244C293.931 240.434 302.761 178.244 302.761 178.244L278.411 178.264Z" fill="#263238"/>
<path d="M294.59 351.894H281.6L280.65 347.754L295.2 347.244L294.59 351.894Z" fill="#FF6B6B"/>
<path opacity="0.2" d="M292.79 193.954C284.62 210.384 291.15 240.354 294.04 251.504C295.52 234.764 298.04 214.284 299.96 199.254C298.69 190.754 296.52 186.384 292.79 193.954Z" fill="black"/>
<path d="M287.19 178.264C287.19 178.264 294.72 243.834 300.41 264.884C307.16 289.884 340.7 328.624 340.7 328.624L350.48 323.244C350.48 323.244 327.22 279.744 322.05 266.574C311.05 238.474 320.47 196.574 311.66 178.264H287.19Z" fill="#263238"/>
<path d="M351.89 323.134L339.75 329.804L336.36 326.704L350.28 318.214L351.89 323.134Z" fill="#FF6B6B"/>
<path d="M294.98 100.994C294.83 101.634 294.36 102.064 293.98 101.994C293.6 101.924 293.35 101.284 293.51 100.644C293.67 100.004 294.13 99.5643 294.51 99.6443C294.89 99.7243 295.14 100.344 294.98 100.994Z" fill="#263238"/>
<path d="M287.79 99.2042C287.63 99.8442 287.16 100.284 286.74 100.204C286.32 100.124 286.11 99.5042 286.27 98.8642C286.43 98.2242 286.89 97.7842 287.27 97.8642C287.65 97.9442 287.89 98.5642 287.79 99.2042Z" fill="#263238"/>
<path d="M287.44 97.9343L286.01 97.1143C286.01 97.1143 286.5 98.5143 287.44 97.9343Z" fill="#263238"/>
<path d="M289.69 100.914C288.758 102.235 287.648 103.419 286.39 104.434C286.659 104.749 286.993 105.002 287.37 105.175C287.746 105.347 288.156 105.436 288.57 105.434L289.69 100.914Z" fill="#FFC1BB"/>
<path d="M291.45 108.804C291.113 108.776 290.779 108.722 290.45 108.644C290.425 108.639 290.401 108.628 290.38 108.612C290.359 108.597 290.341 108.577 290.328 108.555C290.315 108.532 290.307 108.507 290.304 108.481C290.301 108.455 290.303 108.429 290.31 108.404C290.316 108.38 290.327 108.357 290.342 108.337C290.356 108.317 290.375 108.3 290.396 108.287C290.418 108.274 290.441 108.265 290.466 108.261C290.491 108.257 290.516 108.258 290.54 108.264C291.336 108.474 292.17 108.492 292.975 108.319C293.78 108.145 294.532 107.784 295.17 107.264C295.187 107.245 295.208 107.23 295.231 107.219C295.255 107.209 295.28 107.203 295.305 107.203C295.331 107.203 295.356 107.209 295.379 107.219C295.403 107.23 295.423 107.245 295.44 107.264C295.458 107.282 295.472 107.303 295.482 107.326C295.492 107.349 295.497 107.374 295.497 107.399C295.497 107.424 295.492 107.449 295.482 107.472C295.472 107.496 295.458 107.517 295.44 107.534C294.892 107.999 294.257 108.351 293.572 108.569C292.888 108.787 292.166 108.867 291.45 108.804Z" fill="#263238"/>
<path d="M308.41 109.744C307.522 111.041 306.155 111.933 304.61 112.224C302.56 112.584 301.73 110.704 302.47 108.874C303.13 107.224 304.99 105.054 306.97 105.514C307.4 105.625 307.795 105.84 308.121 106.141C308.446 106.443 308.691 106.82 308.834 107.24C308.977 107.66 309.013 108.109 308.939 108.546C308.865 108.983 308.683 109.395 308.41 109.744Z" fill="#E79992"/>
<path d="M298.26 100.234C298.178 100.228 298.099 100.196 298.036 100.142C297.973 100.088 297.929 100.015 297.91 99.9343C297.51 98.1843 295.38 97.2943 295.36 97.2843C295.312 97.2656 295.268 97.2375 295.231 97.2016C295.194 97.1657 295.164 97.1228 295.144 97.0753C295.123 97.0279 295.112 96.9768 295.112 96.9252C295.111 96.8735 295.121 96.8222 295.14 96.7743C295.182 96.6806 295.258 96.6065 295.353 96.5674C295.448 96.5283 295.555 96.5272 295.65 96.5643C295.75 96.5643 298.18 97.6243 298.65 99.7543C298.662 99.8042 298.664 99.856 298.656 99.9066C298.648 99.9573 298.63 100.006 298.603 100.049C298.576 100.093 298.541 100.131 298.499 100.161C298.457 100.191 298.41 100.213 298.36 100.224L298.26 100.234Z" fill="#263238"/>
<path d="M286.381 95.3244C286.315 95.3146 286.253 95.2897 286.199 95.2514C286.145 95.2132 286.101 95.1628 286.071 95.1044C286.026 95.0115 286.019 94.9046 286.053 94.8072C286.087 94.7097 286.158 94.6296 286.251 94.5844C286.797 94.3004 287.404 94.1521 288.021 94.1521C288.637 94.1521 289.244 94.3004 289.791 94.5844C289.877 94.6381 289.939 94.7238 289.964 94.8228C289.988 94.9219 289.972 95.0266 289.921 95.1143C289.895 95.1583 289.861 95.1966 289.82 95.2271C289.779 95.2575 289.732 95.2794 289.683 95.2915C289.634 95.3037 289.582 95.3057 289.532 95.2976C289.482 95.2895 289.434 95.2714 289.391 95.2444C288.957 95.0231 288.477 94.9078 287.991 94.9078C287.504 94.9078 287.024 95.0231 286.591 95.2444C286.527 95.286 286.456 95.3133 286.381 95.3244Z" fill="#263238"/>
<path d="M321.381 138.144C322.381 143.144 323.121 147.994 323.691 152.974C323.991 155.454 324.211 157.974 324.381 160.474C324.471 161.724 324.521 162.994 324.571 164.264L324.621 166.174V166.944C324.621 167.184 324.621 167.424 324.621 167.664C324.494 168.786 324.01 169.838 323.241 170.664C322.648 171.282 321.923 171.757 321.121 172.054C320.599 172.26 320.055 172.404 319.501 172.484C318.667 172.609 317.822 172.65 316.981 172.604C315.584 172.53 314.194 172.36 312.821 172.094C310.296 171.587 307.803 170.939 305.351 170.154C302.951 169.384 300.591 168.554 298.251 167.684C295.911 166.814 293.621 165.844 291.331 164.784L292.721 160.884C295.061 161.454 297.441 162.054 299.811 162.584C302.181 163.114 304.541 163.674 306.891 164.124C309.241 164.574 311.591 164.994 313.891 165.224C314.946 165.35 316.008 165.4 317.071 165.374C317.458 165.372 317.844 165.325 318.221 165.234C318.361 165.234 318.401 165.164 318.371 165.174C318.146 165.25 317.946 165.385 317.791 165.564C317.446 165.934 317.225 166.403 317.161 166.904C317.146 166.99 317.146 167.078 317.161 167.164C317.161 167.164 317.161 167.044 317.161 166.994V166.554L317.001 164.784L316.611 161.224C316.321 158.844 315.991 156.454 315.611 154.064C315.231 151.674 314.871 149.284 314.471 146.894C314.071 144.504 313.661 142.104 313.261 139.764L321.381 138.144Z" fill="#E79992"/>
<path d="M317.55 128.614C320.89 129.614 324.89 141.094 324.89 141.094L311.96 150.334C311.96 150.334 307.25 140.764 308.65 136.454C310.11 131.974 313.79 127.454 317.55 128.614Z" fill="#FF6B6B"/>
<path opacity="0.2" d="M317.55 128.614C320.89 129.614 324.89 141.094 324.89 141.094L311.96 150.334C311.96 150.334 307.25 140.764 308.65 136.454C310.11 131.974 313.79 127.454 317.55 128.614Z" fill="black"/>
<path d="M344.57 339.244H344.47C344.282 339.222 344.103 339.153 343.949 339.043C343.795 338.933 343.672 338.785 343.59 338.614C343.534 338.512 343.505 338.396 343.505 338.279C343.505 338.162 343.534 338.047 343.59 337.944C344.09 337.024 347.04 336.794 347.38 336.774C347.417 336.769 347.455 336.776 347.487 336.794C347.52 336.812 347.545 336.84 347.56 336.874C347.582 336.907 347.593 336.945 347.593 336.984C347.593 337.023 347.582 337.062 347.56 337.094C346.84 337.904 345.59 339.244 344.57 339.244ZM346.9 337.244C345.73 337.364 344.17 337.684 343.9 338.174C343.871 338.217 343.856 338.268 343.856 338.319C343.856 338.371 343.871 338.421 343.9 338.464C343.949 338.58 344.027 338.681 344.127 338.756C344.227 338.832 344.346 338.879 344.47 338.894C345.06 338.904 345.94 338.294 346.9 337.204V337.244Z" fill="#FF6B6B"/>
<path d="M347.08 337.174C346.08 337.174 344.2 336.694 343.83 335.934C343.763 335.795 343.745 335.637 343.779 335.486C343.814 335.335 343.899 335.2 344.02 335.104C344.125 334.999 344.252 334.918 344.393 334.868C344.533 334.818 344.682 334.799 344.83 334.814C346.02 334.904 347.45 336.814 347.51 336.814C347.527 336.845 347.536 336.879 347.536 336.914C347.536 336.949 347.527 336.984 347.51 337.014C347.497 337.044 347.476 337.07 347.45 337.089C347.423 337.108 347.393 337.12 347.36 337.124C347.269 337.15 347.175 337.166 347.08 337.174ZM344.74 335.174C344.571 335.177 344.41 335.245 344.29 335.364C344.11 335.534 344.14 335.654 344.18 335.744C344.43 336.254 345.97 336.744 346.97 336.744C346.46 336.144 345.51 335.204 344.8 335.154L344.74 335.174Z" fill="#FF6B6B"/>
<path d="M281.21 363.054C280.506 363.125 279.799 362.948 279.21 362.554C279.077 362.438 278.976 362.29 278.914 362.124C278.853 361.958 278.835 361.779 278.86 361.604C278.865 361.499 278.897 361.396 278.953 361.307C279.009 361.218 279.087 361.144 279.18 361.094C280.18 360.544 283.45 362.204 283.82 362.404C283.856 362.423 283.885 362.452 283.903 362.488C283.921 362.524 283.927 362.565 283.92 362.604C283.915 362.643 283.897 362.679 283.871 362.708C283.844 362.737 283.809 362.756 283.77 362.764C282.928 362.94 282.071 363.037 281.21 363.054ZM279.79 361.364C279.666 361.357 279.542 361.381 279.43 361.434C279.392 361.454 279.359 361.484 279.336 361.521C279.313 361.558 279.301 361.601 279.3 361.644C279.285 361.758 279.297 361.873 279.335 361.981C279.374 362.089 279.437 362.186 279.52 362.264C280.02 362.714 281.37 362.784 283.18 362.484C282.123 361.919 280.976 361.54 279.79 361.364Z" fill="#FF6B6B"/>
<path d="M283.79 362.764H283.71C282.71 362.314 280.8 360.554 280.96 359.624C280.96 359.404 281.15 359.134 281.68 359.074C281.874 359.055 282.069 359.075 282.255 359.134C282.441 359.192 282.612 359.288 282.76 359.414C283.76 360.274 283.98 362.474 283.98 362.564C283.986 362.599 283.981 362.634 283.967 362.666C283.953 362.698 283.929 362.725 283.9 362.744C283.866 362.761 283.828 362.768 283.79 362.764ZM281.79 359.444H281.67C281.32 359.444 281.3 359.624 281.29 359.664C281.2 360.224 282.51 361.614 283.5 362.214C283.436 361.291 283.086 360.411 282.5 359.694C282.305 359.522 282.05 359.432 281.79 359.444Z" fill="#FF6B6B"/>
<path d="M294.69 99.6943L293.26 98.8743C293.26 98.8743 293.79 100.294 294.69 99.6943Z" fill="#263238"/>
<path d="M312.16 176.314L313.01 179.314C313.12 179.554 312.85 179.784 312.47 179.784H278.24C277.94 179.784 277.7 179.634 277.68 179.454L277.38 176.454C277.38 176.244 277.62 176.074 277.94 176.074H311.62C311.723 176.065 311.827 176.083 311.921 176.125C312.016 176.167 312.098 176.232 312.16 176.314Z" fill="#FF6B6B"/>
<path d="M307.64 180.074H308.54C308.72 180.074 308.85 179.984 308.84 179.874L308.42 176.004C308.42 175.894 308.25 175.794 308.07 175.794H307.17C306.99 175.794 306.85 175.894 306.86 176.004L307.29 179.874C307.3 179.984 307.46 180.074 307.64 180.074Z" fill="#263238"/>
<path d="M280.79 180.074H281.69C281.87 180.074 282.01 179.984 281.99 179.874L281.57 176.004C281.57 175.894 281.4 175.794 281.22 175.794H280.32C280.14 175.794 280 175.894 280.02 176.004L280.44 179.874C280.44 179.984 280.6 180.074 280.79 180.074Z" fill="#263238"/>
<path d="M294.21 180.074H295.11C295.29 180.074 295.43 179.984 295.41 179.874L294.99 176.004C294.99 175.894 294.82 175.794 294.64 175.794H293.79C293.61 175.794 293.47 175.894 293.49 176.004L293.91 179.874C293.87 179.984 294.03 180.074 294.21 180.074Z" fill="#263238"/>
<path d="M293.65 161.054L287.46 154.744L286.67 163.034C286.67 163.034 291.02 166.034 294.04 164.414L293.65 161.054Z" fill="#E79992"/>
<path d="M280.631 153.844L280.351 160.824L286.671 163.034L287.461 154.744L280.631 153.844Z" fill="#E79992"/>
<path d="M151.865 314.194L149.73 311.762L150.028 308.542L146.869 307.824L145.215 305.042L142.24 306.319L139.265 305.042L137.611 307.824L134.453 308.533L134.75 311.753L132.615 314.194L134.75 316.627L134.453 319.856L137.611 320.573L139.265 323.356L142.24 322.069L145.215 323.347L146.869 320.564L150.028 319.847L149.73 316.627L151.865 314.194ZM140.49 318.569L136.99 315.069L138.224 313.836L140.49 316.093L146.256 310.327L147.49 311.569L140.49 318.569Z" fill="white"/>
</svg>
