<svg width="306" height="138" viewBox="0 0 306 138" fill="none" xmlns="http://www.w3.org/2000/svg">
<path d="M17.625 31.7403C19.4497 28.9424 21.7306 26.7527 24.4677 25.1713C27.2048 23.529 30.2461 22.7079 33.5914 22.7079V39.2217H29.3033C25.4105 39.2217 22.4909 40.0733 20.5446 41.7763C18.5982 43.4186 17.625 46.3382 17.625 50.5351V74.1653H2.02354V23.2553H17.625V31.7403Z" fill="#FF473E"/>
<path d="M67.4159 74.8952C62.4283 74.8952 57.9273 73.8308 53.9129 71.7019C49.9593 69.5731 46.8269 66.5319 44.5155 62.5783C42.265 58.6247 41.1398 54.002 41.1398 48.7103C41.1398 43.4794 42.2955 38.8872 44.6068 34.9336C46.9181 30.9192 50.081 27.8476 54.0954 25.7187C58.1098 23.5899 62.6108 22.5254 67.5984 22.5254C72.586 22.5254 77.087 23.5899 81.1014 25.7187C85.1158 27.8476 88.2787 30.9192 90.59 34.9336C92.9013 38.8872 94.057 43.4794 94.057 48.7103C94.057 53.9412 92.8709 58.5639 90.4988 62.5783C88.1874 66.5319 84.9942 69.5731 80.9189 71.7019C76.9045 73.8308 72.4035 74.8952 67.4159 74.8952ZM67.4159 61.3922C70.3963 61.3922 72.9205 60.2974 74.9886 58.1077C77.1174 55.918 78.1818 52.7856 78.1818 48.7103C78.1818 44.6351 77.1478 41.5026 75.0798 39.313C73.0726 37.1233 70.5788 36.0284 67.5984 36.0284C64.5572 36.0284 62.033 37.1233 60.0258 39.313C58.0186 41.4418 57.015 44.5743 57.015 48.7103C57.015 52.7856 57.9881 55.918 59.9345 58.1077C61.9417 60.2974 64.4355 61.3922 67.4159 61.3922Z" fill="#FF473E"/>
<path d="M101.513 48.7103C101.513 43.4186 102.577 38.7959 104.706 34.8424C106.896 30.8888 109.907 27.8476 113.738 25.7187C117.631 23.5899 122.071 22.5254 127.059 22.5254C133.446 22.5254 138.768 24.1981 143.025 27.5434C147.344 30.8888 150.172 35.6027 151.51 41.6851H134.905C133.506 37.7923 130.8 35.846 126.785 35.846C123.927 35.846 121.646 36.9712 119.943 39.2217C118.239 41.4114 117.388 44.5743 117.388 48.7103C117.388 52.8464 118.239 56.0397 119.943 58.2902C121.646 60.4798 123.927 61.5747 126.785 61.5747C130.8 61.5747 133.506 59.6283 134.905 55.7355H151.51C150.172 61.6963 147.344 66.3798 143.025 69.786C138.707 73.1921 133.385 74.8952 127.059 74.8952C122.071 74.8952 117.631 73.8308 113.738 71.7019C109.907 69.5731 106.896 66.5319 104.706 62.5783C102.577 58.6247 101.513 54.002 101.513 48.7103Z" fill="#FF473E"/>
<path d="M169.253 38.4006C163.536 35.3594 160.677 30.5847 160.677 24.0765C160.677 20.7919 161.528 17.8115 163.231 15.1353C164.934 12.3982 167.52 10.2389 170.987 8.65747C174.454 7.01521 178.711 6.19408 183.76 6.19408C188.808 6.19408 193.035 7.01521 196.442 8.65747C199.909 10.2389 202.494 12.3982 204.197 15.1353C205.9 17.8115 206.751 20.7919 206.751 24.0765C206.751 27.361 205.961 30.2197 204.379 32.6527C202.859 35.0857 200.79 37.0016 198.175 38.4006C201.46 39.982 203.984 42.1717 205.748 44.9696C207.512 47.7067 208.394 50.9304 208.394 54.6407C208.394 58.9592 207.299 62.6999 205.109 65.8628C202.919 68.9648 199.939 71.337 196.168 72.9792C192.458 74.6215 188.321 75.4426 183.76 75.4426C179.198 75.4426 175.031 74.6215 171.26 72.9792C167.55 71.337 164.6 68.9648 162.41 65.8628C160.221 62.6999 159.126 58.9592 159.126 54.6407C159.126 50.8696 160.008 47.6155 161.772 44.8784C163.536 42.0805 166.029 39.9212 169.253 38.4006ZM191.606 26.4486C191.606 23.9548 190.876 22.0388 189.416 20.7007C188.017 19.3017 186.132 18.6023 183.76 18.6023C181.387 18.6023 179.472 19.3017 178.012 20.7007C176.613 22.0997 175.913 24.046 175.913 26.5398C175.913 28.912 176.643 30.7975 178.103 32.1965C179.563 33.5346 181.448 34.2037 183.76 34.2037C186.071 34.2037 187.957 33.5042 189.416 32.1053C190.876 30.7063 191.606 28.8208 191.606 26.4486ZM183.76 45.1521C180.901 45.1521 178.59 45.9428 176.826 47.5242C175.062 49.0449 174.18 51.1737 174.18 53.9108C174.18 56.4654 175.031 58.5639 176.734 60.2061C178.498 61.8484 180.84 62.6695 183.76 62.6695C186.679 62.6695 188.96 61.8484 190.602 60.2061C192.305 58.5639 193.157 56.4654 193.157 53.9108C193.157 51.2345 192.275 49.1057 190.511 47.5242C188.808 45.9428 186.558 45.1521 183.76 45.1521Z" fill="#FF473E"/>
<path d="M268.336 36.2585C267.57 35.4933 267.048 34.5182 266.837 33.4565C266.625 32.3948 266.734 31.2943 267.148 30.294C267.562 29.2938 268.263 28.4389 269.163 27.8374C270.063 27.2359 271.122 26.9149 272.204 26.9149C273.287 26.9149 274.345 27.2359 275.245 27.8374C276.145 28.4389 276.846 29.2938 277.261 30.294C277.675 31.2943 277.783 32.3948 277.571 33.4565C277.36 34.5182 276.838 35.4933 276.073 36.2585C275.565 36.767 274.962 37.1704 274.298 37.4456C273.634 37.7209 272.923 37.8625 272.204 37.8625C271.486 37.8625 270.774 37.7209 270.11 37.4456C269.446 37.1704 268.843 36.767 268.336 36.2585Z" fill="#FF473E"/>
<path fill-rule="evenodd" clip-rule="evenodd" d="M305.033 40.8186C305.033 63.3621 286.758 81.6372 264.215 81.6372C241.671 81.6372 223.396 63.3621 223.396 40.8186C223.396 18.2751 241.671 0 264.215 0C286.758 0 305.033 18.2751 305.033 40.8186ZM289.265 15.7737C289.244 15.6729 289.195 15.5801 289.124 15.5062C289.052 15.4322 288.961 15.3803 288.86 15.3564C282.183 13.7237 266.753 19.5419 258.394 27.8979C256.903 29.3768 255.543 30.9829 254.331 32.6979C251.754 32.4699 249.176 32.6603 246.979 33.618C240.78 36.3463 238.975 43.4653 238.472 46.5277C238.444 46.6954 238.454 46.8673 238.504 47.0301C238.553 47.1928 238.639 47.3419 238.756 47.4657C238.872 47.5895 239.016 47.6845 239.175 47.7433C239.335 47.8021 239.506 47.8232 239.675 47.8047L249.629 46.7067C249.637 47.4572 249.682 48.2069 249.765 48.9528C249.815 49.4708 250.045 49.9549 250.415 50.321L254.27 54.1667C254.636 54.536 255.12 54.7659 255.638 54.8165C256.38 54.8995 257.125 54.9448 257.872 54.9522L256.779 64.8942C256.761 65.0632 256.782 65.2341 256.841 65.3935C256.9 65.5529 256.995 65.6965 257.119 65.813C257.242 65.9295 257.391 66.0158 257.554 66.0651C257.717 66.1144 257.889 66.1253 258.056 66.097C261.113 65.6068 268.244 63.8019 270.957 57.603C271.915 55.406 272.111 52.8407 271.889 50.2754C273.609 49.0632 275.219 47.7036 276.702 46.2119C285.088 37.8684 290.873 22.7833 289.265 15.7737ZM251.175 58.0306C252.381 57.822 253.383 57.578 254.008 56.9521C254.336 56.6089 254.917 56.8928 254.874 57.3694C254.692 58.887 254.004 60.2991 252.921 61.3781C250.241 64.0608 240.281 64.3139 240.281 64.3139C240.281 64.3139 240.534 54.3594 243.214 51.6767C244.294 50.5973 245.704 49.9102 247.219 49.7247C247.323 49.7106 247.429 49.7295 247.521 49.7788C247.614 49.828 247.688 49.9052 247.734 49.9992C247.78 50.0932 247.796 50.1994 247.778 50.3026C247.76 50.4058 247.71 50.5008 247.636 50.5741C247.294 50.9162 246.744 52.3721 246.558 53.4108C246.071 56.1506 248.465 58.4924 251.175 58.0306Z" fill="#FF473E"/>
<path d="M0 124.077C0 121.434 0.608836 119.063 1.82651 116.965C3.07009 114.866 4.74115 113.234 6.83969 112.068C8.96414 110.876 11.2829 110.281 13.796 110.281C16.6717 110.281 19.2237 110.993 21.4517 112.418C23.7057 113.817 25.3379 115.812 26.3483 118.403H21.0243C20.3248 116.978 19.3532 115.916 18.1096 115.216C16.866 114.517 15.4282 114.167 13.796 114.167C12.0083 114.167 10.415 114.568 9.01595 115.371C7.61692 116.175 6.51584 117.328 5.71269 118.83C4.93546 120.333 4.54684 122.082 4.54684 124.077C4.54684 126.071 4.93546 127.82 5.71269 129.323C6.51584 130.826 7.61692 131.991 9.01595 132.82C10.415 133.624 12.0083 134.025 13.796 134.025C15.4282 134.025 16.866 133.675 18.1096 132.976C19.3532 132.276 20.3248 131.214 21.0243 129.789H26.3483C25.3379 132.38 23.7057 134.375 21.4517 135.774C19.2237 137.173 16.6717 137.873 13.796 137.873C11.257 137.873 8.93823 137.29 6.83969 136.124C4.74115 134.932 3.07009 133.287 1.82651 131.188C0.608836 129.09 0 126.719 0 124.077Z" fill="#FF473E"/>
<path d="M69.9683 132.121H58.6595L56.7165 137.639H52.0919L61.7685 110.591H66.8983L76.5749 137.639H71.9114L69.9683 132.121ZM68.7248 128.507L64.3334 115.954L59.9031 128.507H68.7248Z" fill="#FF473E"/>
<path d="M116.963 137.639L110.745 126.836H107.364V137.639H102.934V110.63H112.26C114.333 110.63 116.082 110.993 117.507 111.718C118.958 112.444 120.033 113.415 120.732 114.633C121.458 115.851 121.82 117.211 121.82 118.714C121.82 120.475 121.302 122.082 120.266 123.532C119.256 124.957 117.688 125.929 115.564 126.447L122.248 137.639H116.963ZM107.364 123.299H112.26C113.918 123.299 115.162 122.885 115.991 122.056C116.846 121.227 117.274 120.113 117.274 118.714C117.274 117.315 116.859 116.226 116.03 115.449C115.201 114.646 113.944 114.244 112.26 114.244H107.364V123.299Z" fill="#FF473E"/>
<path d="M154.069 114.206V122.133H163.396V125.748H154.069V134.025H164.562V137.639H149.639V110.591H164.562V114.206H154.069Z" fill="#FF473E"/>
<path d="M196.6 114.206V122.133H205.927V125.748H196.6V134.025H207.093V137.639H192.17V110.591H207.093V114.206H196.6Z" fill="#FF473E"/>
<path d="M248.73 137.639L242.512 126.836H239.131V137.639H234.701V110.63H244.028C246.101 110.63 247.849 110.993 249.274 111.718C250.725 112.444 251.8 113.415 252.5 114.633C253.225 115.851 253.588 117.211 253.588 118.714C253.588 120.475 253.07 122.082 252.033 123.532C251.023 124.957 249.456 125.929 247.331 126.447L254.015 137.639H248.73ZM239.131 123.299H244.028C245.686 123.299 246.93 122.885 247.759 122.056C248.614 121.227 249.041 120.113 249.041 118.714C249.041 117.315 248.627 116.226 247.797 115.449C246.968 114.646 245.712 114.244 244.028 114.244H239.131V123.299Z" fill="#FF473E"/>
<path d="M290.306 137.911C288.492 137.911 286.86 137.6 285.409 136.979C283.959 136.331 282.819 135.424 281.99 134.258C281.161 133.093 280.746 131.732 280.746 130.178H285.487C285.591 131.344 286.044 132.302 286.847 133.054C287.676 133.805 288.829 134.181 290.306 134.181C291.835 134.181 293.026 133.818 293.881 133.092C294.736 132.341 295.164 131.383 295.164 130.217C295.164 129.31 294.892 128.572 294.348 128.002C293.829 127.432 293.169 126.991 292.366 126.68C291.588 126.369 290.5 126.033 289.101 125.67C287.34 125.204 285.902 124.737 284.788 124.271C283.699 123.779 282.767 123.027 281.99 122.017C281.212 121.006 280.824 119.659 280.824 117.975C280.824 116.421 281.212 115.061 281.99 113.895C282.767 112.729 283.855 111.835 285.254 111.213C286.653 110.591 288.272 110.281 290.112 110.281C292.728 110.281 294.866 110.941 296.524 112.263C298.208 113.558 299.141 115.346 299.322 117.625H294.425C294.348 116.641 293.881 115.799 293.026 115.099C292.171 114.4 291.044 114.05 289.645 114.05C288.376 114.05 287.34 114.374 286.536 115.022C285.733 115.669 285.332 116.602 285.332 117.82C285.332 118.649 285.578 119.335 286.07 119.879C286.588 120.398 287.236 120.812 288.013 121.123C288.79 121.434 289.853 121.771 291.2 122.133C292.987 122.626 294.438 123.118 295.552 123.61C296.692 124.102 297.651 124.867 298.428 125.903C299.231 126.913 299.633 128.274 299.633 129.984C299.633 131.357 299.257 132.652 298.506 133.87C297.78 135.087 296.705 136.072 295.28 136.823C293.881 137.549 292.223 137.911 290.306 137.911Z" fill="#FF473E"/>
</svg>
