<svg width="101" height="30" viewBox="0 0 101 30" fill="none" xmlns="http://www.w3.org/2000/svg">
<path fill-rule="evenodd" clip-rule="evenodd" d="M12.3681 0L8.16211 6.673L16.4851 19.91H24.7771L12.3681 0Z" fill="#D8D8D8"/>
<path fill-rule="evenodd" clip-rule="evenodd" d="M12.3681 0L8.16211 6.673L16.4851 19.91H24.7771L12.3681 0Z" fill="url(#paint0_linear_26_30)"/>
<path fill-rule="evenodd" clip-rule="evenodd" d="M16.5631 6.73L12.3561 13.342L8.16211 6.672L12.3681 0L16.5631 6.73V6.73Z" fill="#1DE3D1"/>
<path fill-rule="evenodd" clip-rule="evenodd" d="M16.5631 23.3599L12.3561 29.9719L8.16211 23.3019L12.3681 16.6289L16.5631 23.3599Z" fill="url(#paint1_linear_26_30)"/>
<path fill-rule="evenodd" clip-rule="evenodd" d="M0 19.9108H8.162L12.341 13.3298L8.162 6.67383L0 19.9108Z" fill="url(#paint2_linear_26_30)"/>
<path d="M40.8021 6.73798H43.6931V17.95H40.8031V16.627C39.9951 17.636 38.7851 18.264 37.1491 18.264C34.1691 18.264 31.7031 15.684 31.7031 12.344C31.7031 9.00198 34.1681 6.42298 37.1491 6.42298C38.7851 6.42298 39.9951 7.05098 40.8021 8.05998V6.73798ZM37.6871 15.506C39.4801 15.506 40.8021 14.228 40.8021 12.344C40.8021 10.46 39.4801 9.18198 37.6871 9.18198C35.9171 9.18198 34.5941 10.46 34.5941 12.344C34.5941 14.228 35.9161 15.506 37.6871 15.506ZM53.5751 6.42398C56.5781 6.42398 59.0431 9.00298 59.0431 12.344C59.0431 15.686 56.5781 18.264 53.5751 18.264C51.9381 18.264 50.7511 17.659 49.9441 16.628V22.436H47.0531V6.73798H49.9431V8.05998C50.7511 7.02798 51.9381 6.42298 53.5751 6.42298V6.42398ZM53.0371 15.506C54.8301 15.506 56.1521 14.228 56.1521 12.344C56.1521 10.46 54.8301 9.18198 53.0371 9.18198C51.2671 9.18198 49.9441 10.46 49.9441 12.344C49.9441 14.228 51.2661 15.506 53.0371 15.506V15.506ZM61.9291 17.852V6.63998H64.8201V17.853H61.9301L61.9291 17.852ZM86.0121 5.35098V2.45898H88.9031V5.35098H86.0131H86.0121ZM61.9291 5.35098V2.45898H64.8201V5.35098H61.9301H61.9291ZM80.7101 6.73798H83.7801L80.2181 17.95H77.4621L75.4001 11.155L73.3381 17.95H70.5801L67.0171 6.73798H70.0871L71.9921 13.623L74.0321 6.73798H76.7661L78.8061 13.645L80.7101 6.73798V6.73798ZM86.0121 17.852V6.63998H88.9031V17.853H86.0131L86.0121 17.852ZM95.8781 15.237H100.854V17.951H92.0001V16.022L96.7291 9.45198H92.2241V6.73698H100.629V8.66498L95.8771 15.236L95.8781 15.237Z" fill="#49434D"/>
<defs>
<linearGradient id="paint0_linear_26_30" x1="17.9075" y1="17.7309" x2="12.2516" y2="8.54857" gradientUnits="userSpaceOnUse">
<stop stop-color="#00C2FF"/>
<stop offset="1" stop-color="#005AF9"/>
</linearGradient>
<linearGradient id="paint1_linear_26_30" x1="12.3626" y1="16.6289" x2="12.3626" y2="29.9719" gradientUnits="userSpaceOnUse">
<stop stop-color="#FF16A6"/>
<stop offset="1" stop-color="#FFBF27"/>
</linearGradient>
<linearGradient id="paint2_linear_26_30" x1="4.61307" y1="19.9108" x2="12.2747" y2="7.8914" gradientUnits="userSpaceOnUse">
<stop stop-color="#E300F6"/>
<stop offset="1" stop-color="#5213D2"/>
</linearGradient>
</defs>
</svg>
