<?xml version="1.0" encoding="UTF-8" standalone="no"?>
<svg
   xmlns:dc="http://purl.org/dc/elements/1.1/"
   xmlns:cc="http://creativecommons.org/ns#"
   xmlns:rdf="http://www.w3.org/1999/02/22-rdf-syntax-ns#"
   xmlns:svg="http://www.w3.org/2000/svg"
   xmlns="http://www.w3.org/2000/svg"
   id="svg5074"
   version="1.1"
   viewBox="0 0 36.722385 7.581192"
   height="7.581192mm"
   width="36.722385mm">
  <defs
     id="defs5068" />
  <metadata
     id="metadata5071">
    <rdf:RDF>
      <cc:Work
         rdf:about="">
        <dc:format>image/svg+xml</dc:format>
        <dc:type
           rdf:resource="http://purl.org/dc/dcmitype/StillImage" />
        <dc:title></dc:title>
      </cc:Work>
    </rdf:RDF>
  </metadata>
  <g
     transform="translate(-42.114998,-73.227264)"
     id="layer1">
    <g
       id="text4749-3-2-0-7-7-7-9-1-3-0"
       style="font-style:normal;font-variant:normal;font-weight:normal;font-stretch:normal;font-size:8.85855579px;line-height:125%;font-family:'Qanelas Soft DEMO';-inkscape-font-specification:'Qanelas Soft DEMO';letter-spacing:0px;word-spacing:0px;display:inline;fill:#000000;fill-opacity:1;stroke:none;stroke-width:0.26458332px;stroke-linecap:butt;stroke-linejoin:miter;stroke-opacity:1"
       aria-label="f">
      <path
         id="path9590"
         style="font-style:normal;font-variant:normal;font-weight:800;font-stretch:normal;font-family:'Qanelas Soft DEMO';-inkscape-font-specification:'Qanelas Soft DEMO Ultra-Bold';fill:#000000;stroke-width:0.26458332px"
         d="m 44.630828,75.750221 c 0.150595,0 0.230322,-0.07087 0.230322,-0.212605 v -0.832705 c 0,-0.141736 -0.07973,-0.230322 -0.221464,-0.230322 -1.319925,0 -1.931165,0.726402 -1.931165,1.90459 h -0.372059 c -0.141737,0 -0.221464,0.07973 -0.221464,0.221463 v 0.832705 c 0,0.141737 0.07973,0.221464 0.221464,0.221464 h 0.372059 v 2.932182 c 0,0.141736 0.07973,0.221463 0.221464,0.221463 h 0.885856 c 0.141736,0 0.221463,-0.07973 0.221463,-0.221463 v -2.932182 h 0.602382 c 0.141737,0 0.221464,-0.07973 0.221464,-0.221464 v -0.832705 c 0,-0.141736 -0.07973,-0.221463 -0.221464,-0.221463 h -0.602382 c 0,-0.425211 0.230323,-0.628958 0.593524,-0.628958 z" />
    </g>
    <g
       id="text4749-3-2-0-7-7-7-9-8-6-8-8"
       style="font-style:normal;font-variant:normal;font-weight:normal;font-stretch:normal;font-size:8.85855579px;line-height:125%;font-family:'Qanelas Soft DEMO';-inkscape-font-specification:'Qanelas Soft DEMO';letter-spacing:0px;word-spacing:0px;display:inline;fill:#000000;fill-opacity:1;stroke:none;stroke-width:0.26458332px;stroke-linecap:butt;stroke-linejoin:miter;stroke-opacity:1"
       transform="scale(1,-1)"
       aria-label="f">
      <path
         id="path9593"
         style="font-style:normal;font-variant:normal;font-weight:800;font-stretch:normal;font-family:'Qanelas Soft DEMO';-inkscape-font-specification:'Qanelas Soft DEMO Ultra-Bold';fill:#000000;stroke-width:0.26458332px"
         d="m 47.115508,-78.2855 c 0.150595,0 0.230322,-0.07087 0.230322,-0.212605 v -0.832704 c 0,-0.141737 -0.07973,-0.230323 -0.221464,-0.230323 -1.319924,0 -1.931165,0.726402 -1.931165,1.90459 h -0.372059 c -0.141737,0 -0.221464,0.07973 -0.221464,0.221464 v 0.832704 c 0,0.141737 0.07973,0.221464 0.221464,0.221464 h 0.372059 v 2.932182 c 0,0.141737 0.07973,0.221464 0.221464,0.221464 h 0.885856 c 0.141737,0 0.221464,-0.07973 0.221464,-0.221464 v -2.932182 h 0.602381 c 0.141737,0 0.221464,-0.07973 0.221464,-0.221464 v -0.832704 c 0,-0.141737 -0.07973,-0.221464 -0.221464,-0.221464 h -0.602381 c 0,-0.425211 0.230322,-0.628958 0.593523,-0.628958 z" />
    </g>
    <g
       id="text4749-3-5-1-9-3-0-9-4-6"
       style="font-style:normal;font-variant:normal;font-weight:normal;font-stretch:normal;font-size:7.05014038px;line-height:125%;font-family:'Qanelas Soft DEMO';-inkscape-font-specification:'Qanelas Soft DEMO';letter-spacing:-0.17462499px;word-spacing:0px;fill:#000000;fill-opacity:1;stroke:none;stroke-width:0.26458332px;stroke-linecap:butt;stroke-linejoin:miter;stroke-opacity:1"
       aria-label="freetext.ai">
      <path
         id="path9567"
         style="font-style:normal;font-variant:normal;font-weight:bold;font-stretch:normal;font-family:Qanelas;-inkscape-font-specification:'Qanelas Bold';letter-spacing:-0.17462499px;fill:#000000;stroke-width:0.26458332px"
         d="m 51.818177,75.647577 v -0.874218 c -1.113922,-0.0705 -1.649733,0.50056 -1.649733,1.47348 v 0.03525 h -0.50761 v 0.874218 h 0.50761 v 2.650852 h 0.909469 v -2.650852 h 0.740264 v -0.874218 h -0.740264 v -0.03525 c 0,-0.47941 0.274955,-0.634513 0.740264,-0.599262 z" />
      <path
         id="path9569"
         style="font-style:normal;font-variant:normal;font-weight:bold;font-stretch:normal;font-family:Qanelas;-inkscape-font-specification:'Qanelas Bold';letter-spacing:-0.17462499px;fill:#000000;stroke-width:0.26458332px"
         d="m 52.965784,76.81085 v -0.528761 h -0.909468 v 3.52507 h 0.909468 v -1.741384 c 0,-0.683864 0.49351,-0.895368 0.965869,-0.838967 v -1.01522 c -0.430058,0 -0.789615,0.183303 -0.965869,0.599262 z" />
      <path
         id="path9571"
         style="font-style:normal;font-variant:normal;font-weight:bold;font-stretch:normal;font-family:Qanelas;-inkscape-font-specification:'Qanelas Bold';letter-spacing:-0.17462499px;fill:#000000;stroke-width:0.26458332px"
         d="m 54.915124,78.418282 h 2.643803 c 0.0282,-0.119853 0.03525,-0.239705 0.03525,-0.373658 0,-1.03637 -0.719114,-1.861237 -1.755485,-1.861237 -1.113922,0 -1.868287,0.810766 -1.868287,1.861237 0,1.050471 0.740265,1.861237 1.889438,1.861237 0.789616,0 1.410028,-0.401858 1.628582,-1.113922 l -0.895368,0.0071 c -0.119852,0.197404 -0.401858,0.352507 -0.726164,0.352507 -0.451209,0 -0.831917,-0.232654 -0.951769,-0.733214 z m -0.007,-0.712064 c 0.112802,-0.444159 0.437109,-0.705014 0.923568,-0.705014 0.380708,0 0.747315,0.197403 0.853067,0.705014 z" />
      <path
         id="path9573"
         style="font-style:normal;font-variant:normal;font-weight:bold;font-stretch:normal;font-family:Qanelas;-inkscape-font-specification:'Qanelas Bold';letter-spacing:-0.17462499px;fill:#000000;stroke-width:0.26458332px"
         d="m 58.802592,78.418282 h 2.643802 c 0.0282,-0.119853 0.03525,-0.239705 0.03525,-0.373658 0,-1.03637 -0.719114,-1.861237 -1.755485,-1.861237 -1.113922,0 -1.868287,0.810766 -1.868287,1.861237 0,1.050471 0.740265,1.861237 1.889438,1.861237 0.789615,0 1.410028,-0.401858 1.628582,-1.113922 l -0.895368,0.0071 c -0.119852,0.197404 -0.401858,0.352507 -0.726164,0.352507 -0.451209,0 -0.831917,-0.232654 -0.951769,-0.733214 z m -0.007,-0.712064 c 0.112802,-0.444159 0.437108,-0.705014 0.923568,-0.705014 0.380708,0 0.747315,0.197403 0.853067,0.705014 z" />
      <path
         id="path9575"
         style="font-style:normal;font-variant:normal;font-weight:bold;font-stretch:normal;font-family:Qanelas;-inkscape-font-specification:'Qanelas Bold';letter-spacing:-0.17462499px;fill:#000000;stroke-width:0.26458332px"
         d="m 63.713321,76.282089 h -0.606312 v -1.128022 h -0.909468 v 1.128022 h -0.613362 v 0.874218 h 0.613362 v 2.650852 h 0.909468 v -2.650852 h 0.606312 z" />
      <path
         id="path9577"
         style="font-style:normal;font-variant:normal;font-weight:bold;font-stretch:normal;font-family:Qanelas;-inkscape-font-specification:'Qanelas Bold';letter-spacing:-0.17462499px;fill:#000000;stroke-width:0.26458332px"
         d="m 64.732374,78.418282 h 2.643802 c 0.0282,-0.119853 0.03525,-0.239705 0.03525,-0.373658 0,-1.03637 -0.719114,-1.861237 -1.755485,-1.861237 -1.113922,0 -1.868287,0.810766 -1.868287,1.861237 0,1.050471 0.740265,1.861237 1.889438,1.861237 0.789615,0 1.410028,-0.401858 1.628582,-1.113922 l -0.895368,0.0071 c -0.119852,0.197404 -0.401858,0.352507 -0.726164,0.352507 -0.451209,0 -0.831917,-0.232654 -0.951769,-0.733214 z m -0.007,-0.712064 c 0.112802,-0.444159 0.437108,-0.705014 0.923568,-0.705014 0.380708,0 0.747315,0.197403 0.853067,0.705014 z" />
      <path
         id="path9579"
         style="font-style:normal;font-variant:normal;font-weight:bold;font-stretch:normal;font-family:Qanelas;-inkscape-font-specification:'Qanelas Bold';letter-spacing:-0.17462499px;fill:#000000;stroke-width:0.26458332px"
         d="m 70.562926,79.807159 -1.149173,-1.804836 1.092772,-1.720234 h -0.97292 l -0.606312,0.951769 -0.599262,-0.951769 h -0.972919 l 1.085722,1.720234 -1.142123,1.804836 h 0.972919 l 0.655663,-1.03637 0.662713,1.03637 z" />
      <path
         id="path9581"
         style="font-style:normal;font-variant:normal;font-weight:bold;font-stretch:normal;font-family:Qanelas;-inkscape-font-specification:'Qanelas Bold';letter-spacing:-0.17462499px;fill:#000000;stroke-width:0.26458332px"
         d="M 72.663072,76.282089 H 72.05676 v -1.128022 h -0.909468 v 1.128022 H 70.53393 v 0.874218 h 0.613362 v 2.650852 h 0.909468 v -2.650852 h 0.606312 z" />
      <path
         id="path9583"
         style="font-style:normal;font-variant:normal;font-weight:bold;font-stretch:normal;font-family:Qanelas;-inkscape-font-specification:'Qanelas Bold';letter-spacing:-0.17462499px;fill:#000000;stroke-width:0.26458332px"
         d="m 72.824982,79.807159 h 1.00112 v -1.00817 h -1.00112 z" />
      <path
         id="path9585"
         style="font-style:normal;font-variant:normal;font-weight:bold;font-stretch:normal;font-family:Qanelas;-inkscape-font-specification:'Qanelas Bold';letter-spacing:-0.17462499px;fill:#000000;stroke-width:0.26458332px"
         d="m 75.918647,76.183387 c -0.775515,0 -1.431178,0.46531 -1.431178,1.297226 h 0.888317 c 0,-0.274955 0.211505,-0.451209 0.542861,-0.451209 0.338407,0 0.549911,0.176254 0.549911,0.592212 v 0.373657 c -0.204454,-0.176253 -0.51466,-0.310206 -0.958819,-0.310206 -0.627462,0 -1.184423,0.366607 -1.184423,1.106872 0,0.740265 0.556961,1.113922 1.184423,1.113922 0.444159,0 0.754365,-0.155103 0.958819,-0.401858 v 0.303156 h 0.888318 v -2.241944 c 0,-0.916518 -0.655663,-1.381828 -1.438229,-1.381828 z m -0.0987,3.045661 c -0.401858,0 -0.585161,-0.183304 -0.585161,-0.437109 0,-0.253805 0.183303,-0.437108 0.585161,-0.437108 0.401858,0 0.648613,0.169203 0.648613,0.437108 0,0.253805 -0.246755,0.437109 -0.648613,0.437109 z" />
      <path
         id="path9587"
         style="font-style:normal;font-variant:normal;font-weight:bold;font-stretch:normal;font-family:Qanelas;-inkscape-font-specification:'Qanelas Bold';letter-spacing:-0.17462499px;fill:#000000;stroke-width:0.26458332px"
         d="m 77.927914,75.788579 h 0.909468 v -0.916518 h -0.909468 z m 0,4.01858 h 0.909468 v -3.52507 h -0.909468 z" />
    </g>
  </g>
</svg>
